<svg xmlns="http://www.w3.org/2000/svg" xmlns:xlink="http://www.w3.org/1999/xlink" xmlns:lucid="lucid" width="1479.87" height="850.51"><g transform="translate(208.98725284339434 -396.84333325631235)" lucid:page-tab-id="RQfBp5_I7y7G"><path d="M-1806.87 0h3677.74v1322.84h-3677.74z" fill="#fff"/><path d="M1119.33 1007.7c0 131.52-132.6 238.15-296.2 238.15-163.58 0-296.2-106.63-296.2-238.16 0-131.55 132.62-238.18 296.2-238.18 163.6 0 296.2 106.63 296.2 238.17z" fill="#fff"/><path d="M1118.7 1022.92l-.06 1.05-.52 5.02m-1.7 12.07l-1.14 6m-2.87 11.85l-1.43 5.16-.23.7m-3.95 11.55l-1.38 3.7-.84 2m-4.95 11.13l-1.3 2.77-1.4 2.7m-5.9 10.68l-1.45 2.53-1.7 2.7m-6.76 10.16l-2.06 2.95-1.5 2m-7.54 9.58l-3.4 4.1-.52.58m-8.24 9l-4.27 4.36m-8.84 8.4l-.64.6-3.96 3.42m-9.4 7.78l-4.35 3.45-.44.33m-9.9 7.14l-5.07 3.38m-10.32 6.5l-5 3.03-.23.13m-10.7 5.9l-.38.2-5.07 2.52m-11 5.25l-5.58 2.48m-11.3 4.6l-4.1 1.62-1.6.55m-11.52 4.02l-.17.05-5.67 1.7m-11.72 3.38l-5.9 1.5m-11.9 2.74l-5.97 1.27m-12.02 2.07l-3.88.65-2.15.27m-12.1 1.52l-.83.1-5.26.45m-12.17.93l-6.1.26m-12.2.36l-3.04.03-3.05-.06m-12.2-.27h-.42l-5.66-.37m-12.17-.86l-6.07-.64m-12.1-1.5l-6.04-.9m-12-2.13l-6-1.14m-11.9-2.8l-2.58-.6-3.3-.92m-11.75-3.33l-5.8-1.88m-11.54-3.98l-5.72-2.14m-11.3-4.63l-3.68-1.55-1.9-.9m-11.02-5.22l-5.4-2.83m-10.7-5.87l-5.28-3.05m-10.3-6.5l-.67-.43-4.38-3.03m-9.9-7.15l-4.85-3.7m-9.4-7.78l-4.53-4.08m-8.85-8.4l-2.4-2.34-1.9-2m-8.2-9.02l-3.86-4.46-.13-.16m-7.5-9.62l-3.57-4.94m-6.75-10.16l-3.16-5.22m-5.9-10.68l-2.7-5.47m-4.93-11.15l-2.26-5.68m-3.9-11.56l-1.4-4.7-.3-1.15m-2.83-11.87l-.62-2.97-.5-3.03m-1.75-12.08l-.12-1-.42-5.08m-.6-12.18l-.04-3.05v-.02l.07-3.04m.56-12.2l.06-1.04.53-5.02m1.7-12.08l1.14-6m2.86-11.85l1.43-5.15.23-.72m3.95-11.54l1.37-3.68.84-2m4.94-11.15l1.3-2.76 1.4-2.7m5.9-10.68l1.44-2.5 1.72-2.7m6.75-10.18l2.06-2.96 1.5-1.98m7.55-9.6l3.4-4.1.5-.57m8.26-9l4.28-4.36m8.83-8.4l.64-.6 3.97-3.4m9.4-7.8l4.36-3.43.44-.33m9.9-7.14l5.07-3.38m10.32-6.5l4.98-3.02.24-.14m10.7-5.87l.38-.23 5.06-2.5m11.02-5.26l5.57-2.47m11.3-4.6l4.1-1.62 1.6-.55m11.52-4l.16-.07 5.68-1.7m11.73-3.38l5.9-1.52m11.9-2.73l5.97-1.26m12.02-2.1l3.88-.65 2.15-.27m12.1-1.53l.83-.1 5.25-.44m12.16-.93l6.1-.25m12.18-.36l3.05-.03 3.05.06m12.2.24h.43l5.67.37m12.17.87l6.07.64m12.1 1.5l6.05.9m12 2.14l6 1.14m11.88 2.78l2.6.6 3.3.93M928.4 785l5.8 1.9m11.53 3.97l5.73 2.1m11.28 4.64l3.7 1.55 1.9.88m11.03 5.23l5.4 2.84m10.7 5.88l5.28 3.05m10.32 6.5l.66.43 4.37 3.04m9.88 7.14l4.86 3.7m9.4 7.77l4.53 4.08m8.85 8.4l2.4 2.34 1.88 2m8.22 9.02l3.85 4.45.13.16m7.5 9.63l3.58 4.94m6.74 10.17l3.16 5.2m5.9 10.7l2.7 5.46m4.94 11.16l2.25 5.67m3.88 11.56l1.43 4.7.3 1.15m2.83 11.86l.63 2.98.5 3.02m1.74 12.08l.12 1 .43 5.07m.6 12.2l.03 3.04-.07 3.04" stroke="#5e5e5e" stroke-width="3" fill="none"/><path d="M631.05 780.5c0 211.07-141.27 382.17-315.52 382.17C141.26 1162.67 0 991.57 0 780.5c0-211.06 141.26-382.16 315.52-382.16s315.53 171.1 315.53 382.17z" fill="#fff"/><path d="M630.74 795.27l-.1 4.94-.06.97m-.74 11.8l-.38 5.88m-1.2 11.75l-.6 5.88m-1.64 11.7l-.87 5.84m-2.06 11.62l-1.1 5.8M619.47 883l-1.35 5.74m-2.95 11.43l-1.58 5.7m-3.4 11.3l-1.83 5.6m-3.87 11.17l-2.05 5.54m-4.33 11l-2.3 5.43m-4.78 10.8l-2.5 5.35m-5.27 10.57l-2.74 5.24m-5.73 10.32l-2.95 5.12m-6.2 10.05l-3.17 4.98m-6.68 9.75l-3.32 4.8-.05.04m-7.14 9.4l-2.13 2.8-1.53 1.86m-7.53 9.1l-.5.63-3.4 3.8m-7.98 8.7l-4.13 4.22m-8.44 8.27l-4.3 4.04m-8.88 7.8l-3.22 2.77-1.3 1.04m-9.26 7.33l-4.77 3.47m-9.68 6.78l-4.92 3.27m-10.06 6.17l-2.15 1.3-2.97 1.64m-10.4 5.6l-5.3 2.6m-10.73 4.93l-2.7 1.2-2.75 1.1m-11.03 4.2l-5.57 1.96m-11.28 3.5l-1.7.5-4 1.03m-11.5 2.75l-5.77 1.22m-11.65 1.98l-5.86.74m-11.75 1.2l-4 .33-1.9.07m-11.8.42l-2.95.03-2.95-.07m-11.8-.4l-5.9-.37m-11.75-1.17l-.72-.07-5.12-.77m-11.65-1.97l-5.02-.96-.76-.18m-11.5-2.76l-5.67-1.6m-11.28-3.48l-3.24-1.05-2.36-.88m-11.02-4.23l-5.45-2.3m-10.73-4.9l-2.66-1.26-2.63-1.37m-10.4-5.6l-5.12-2.94m-10.05-6.2l-3.74-2.37-1.22-.85m-9.7-6.76l-4.7-3.58m-9.27-7.3l-4.54-3.77m-8.85-7.83l-3.34-3.02-1-.97m-8.44-8.27l-.66-.65-3.4-3.62m-8.02-8.67l-3.86-4.46m-7.55-9.08l-3.67-4.63m-7.08-9.45l-3.47-4.78m-6.6-9.8l-3.26-4.9m-6.13-10.1l-2.43-4.05-.57-1.04m-5.7-10.34l-1.75-3.2-1-2.02m-5.26-10.58l-1.3-2.6-1.22-2.74m-4.8-10.8l-1-2.27-1.27-3.17m-4.34-11l-.87-2.2-1.17-3.33m-3.9-11.15l-.82-2.4-.96-3.23m-3.42-11.3l-.87-2.88-.72-2.82m-2.93-11.44l-.93-3.6-.45-2.14m-2.46-11.56l-.97-4.57-.2-1.2M5.9 854l-.98-5.77v-.04m-1.5-11.73l-.73-5.86m-1.03-11.76l-.5-5.88m-.6-11.8l-.26-5.9m-.27-11.8L0 780.5l.06-2.95m.25-11.8l.1-4.95.07-.96m.74-11.8l.39-5.88m1.2-11.75l.6-5.87m1.63-11.7L5.9 707m2.06-11.63l1.1-5.8m2.5-11.55l1.36-5.75m2.95-11.43l1.58-5.7m3.4-11.3l1.83-5.6m3.87-11.17l2.05-5.54m4.33-11l2.3-5.43M40 594.3l2.52-5.34m5.26-10.57l2.74-5.25m5.73-10.32l2.95-5.12m6.2-10.04l3.17-4.98m6.68-9.75l3.32-4.78.05-.06m7.14-9.42l2.12-2.8 1.53-1.85m7.54-9.1l.52-.63 3.4-3.78m7.97-8.7l4.14-4.23m8.42-8.3l4.3-4.03m8.87-7.8l3.22-2.77 1.3-1.03m9.25-7.33l4.77-3.47m9.68-6.78l4.9-3.28m10.08-6.18l2.15-1.3 2.97-1.64m10.4-5.58l5.3-2.62m10.73-4.92l2.7-1.2 2.75-1.1m11.03-4.2l5.58-1.96m11.28-3.5l1.7-.52 4-1.02m11.5-2.75l5.76-1.22m11.65-1.97l5.86-.74m11.75-1.2l4-.33 1.9-.08m11.8-.43l2.94-.03 2.96.06m11.8.4l5.9.38m11.75 1.17l.72.07 5.12.76m11.65 1.97l5.02.96.77.2m11.5 2.75l5.68 1.6m11.28 3.48l3.22 1.05 2.37.88m11.02 4.23l5.45 2.28m10.73 4.92l2.66 1.25 2.64 1.37m10.4 5.57l5.13 2.95m10.05 6.2l3.74 2.37 1.2.84m9.7 6.76l4.7 3.57m9.28 7.3l4.55 3.76m8.84 7.83l3.35 3 1 .98m8.43 8.27l.66.65 3.4 3.63m8 8.67l3.87 4.47m7.55 9.08l3.67 4.63m7.07 9.45l3.47 4.78m6.6 9.8l3.27 4.92m6.14 10.1l2.44 4.04.57 1.04m5.7 10.35l1.75 3.2 1 2.02m5.25 10.58l1.3 2.6 1.22 2.74m4.8 10.78l1 2.28 1.27 3.17m4.35 11l.86 2.2 1.16 3.33m3.9 11.15l.82 2.42.97 3.22m3.43 11.3l.86 2.88.72 2.8m2.93 11.45l.93 3.6.45 2.14m2.46 11.57l.96 4.56.2 1.22m1.97 11.65l.98 5.78.02.04m1.48 11.72l.74 5.86m1.04 11.77l.5 5.88m.62 11.8l.24 5.9m.28 11.8l.03 2.96-.06 2.96" stroke="#5e5e5e" stroke-width="3" fill="none"/><path d="M527.1 695.64H398v-1.95h129.1zm208.56 0h-119.7v-1.95h119.7z" stroke="#000" stroke-width=".05"/><path d="M398.03 695.64H397v-1.95h1.03z"/><path stroke="#000" stroke-width=".05"/><path d="M746 694.67l-18.78 10.84-.98-1.68 14.17-8.18h-4.85v-1.95h4.86l-14.16-8.2.98-1.68z" stroke="#000" stroke-width=".05"/><use xlink:href="#a" transform="matrix(1,0,0,1,527.0998057382056,683.8666666666667) translate(0.005000000000002558 14.4)"/><use xlink:href="#b" transform="matrix(1,0,0,1,527.0998057382056,683.8666666666667) translate(17.955000000000002 14.4)"/><use xlink:href="#c" transform="matrix(1,0,0,1,527.0998057382056,683.8666666666667) translate(67.905 14.4)"/><path d="M236 639.67a5 5 0 0 1 5-5h150a5 5 0 0 1 5 5v110a5 5 0 0 1-5 5H241a5 5 0 0 1-5-5z" stroke="#000" stroke-width="2" fill="#fff"/><use xlink:href="#d" transform="matrix(1,0,0,1,247.9999999999999,646.6666666666666) translate(24.049999999999997 41.4)"/><use xlink:href="#e" transform="matrix(1,0,0,1,247.9999999999999,646.6666666666666) translate(44.05 63)"/><path d="M747.05 639.67a5 5 0 0 1 5-5h150a5 5 0 0 1 5 5v110a5 5 0 0 1-5 5h-150a5 5 0 0 1-5-5z" stroke="#000" stroke-width="2" fill="#fff"/><use xlink:href="#f" transform="matrix(1,0,0,1,759.0496114764114,646.6666666666666) translate(3.5999999999999943 50.4)"/><use xlink:href="#g" transform="matrix(1,0,0,1,759.0496114764114,646.6666666666666) translate(80.45 50.4)"/><path d="M631.05 859.67a5 5 0 0 1 5-5h150a5 5 0 0 1 5 5v110a5 5 0 0 1-5 5h-150a5 5 0 0 1-5-5z" stroke="#000" stroke-width="2" fill="#edf5ff"/><use xlink:href="#h" transform="matrix(1,0,0,1,643.0496114764115,866.6666666666667) translate(42.55 50.4)"/><path d="M860 859.67a5 5 0 0 1 5-5h150a5 5 0 0 1 5 5v110a5 5 0 0 1-5 5H865a5 5 0 0 1-5-5z" stroke="#000" stroke-width="2" fill="#edf5ff"/><use xlink:href="#i" transform="matrix(1,0,0,1,871.9999999999999,866.6666666666667) translate(42.55 41.4)"/><use xlink:href="#j" transform="matrix(1,0,0,1,871.9999999999999,866.6666666666667) translate(26.525 63)"/><path d="M711.05 852.67v-43a5 5 0 0 1 5-5h106a5 5 0 0 0 5-5v-19.35" stroke="#000" stroke-width="2" fill="none"/><path d="M712.02 853.67h-1.94v-1.03h1.94z" stroke="#000" stroke-width=".05"/><path d="M827.05 757.67l12.5 21.65h-25z" stroke="#000" stroke-width="2" fill="#fff"/><path d="M940 852.67v-43a5 5 0 0 0-5-5H832.05a5 5 0 0 1-5-5v-19.35" stroke="#000" stroke-width="2" fill="none"/><path d="M940.98 853.67H939v-1.03H941z" stroke="#000" stroke-width=".05"/><path d="M827.05 757.67l12.5 21.65h-25z" stroke="#000" stroke-width="2" fill="#fff"/><path d="M-195.93 695.35a5 5 0 0 1 5-5h150a5 5 0 0 1 5 5v110a5 5 0 0 1-5 5h-150a5 5 0 0 1-5-5z" stroke="#000" stroke-width="2" fill="#edf5ff"/><use xlink:href="#k" transform="matrix(1,0,0,1,-183.9266972878388,702.3533333333335) translate(32.55 50.4)"/><path d="M-168.37 640.68a6 6 0 0 1 6-6h92.9a6 6 0 0 1 6 6v24.67a6 6 0 0 1-6 6h-92.9a6 6 0 0 1-6-6z" fill="none"/><use xlink:href="#l" transform="matrix(1,0,0,1,-163.36996889277708,639.6766666666667) translate(0 17.944444444444443)"/><path d="M-209 426a6 6 0 0 1 6-6h174.13a6 6 0 0 1 6 6v24.68a6 6 0 0 1-6 6H-203a6 6 0 0 1-6-6z" fill="none"/><use xlink:href="#m" transform="matrix(1,0,0,1,-203.98725284339434,425.00000000000006) translate(0 17.944444444444443)"/><use xlink:href="#n" transform="matrix(1,0,0,1,-203.98725284339434,425.00000000000006) translate(62.77777777777778 17.944444444444443)"/><use xlink:href="#o" transform="matrix(1,0,0,1,-203.98725284339434,425.00000000000006) translate(108.39506172839506 17.944444444444443)"/><path d="M-195.93 480.68a5 5 0 0 1 5-5h150a5 5 0 0 1 5 5v110a5 5 0 0 1-5 5h-150a5 5 0 0 1-5-5z" stroke="#000" stroke-width="2" fill="#fcfcca"/><use xlink:href="#p" transform="matrix(1,0,0,1,-183.9266972878388,487.67666666666673) translate(3.625 50.4)"/><use xlink:href="#q" transform="matrix(1,0,0,1,-183.9266972878388,487.67666666666673) translate(70.525 50.4)"/><path d="M421.33 859.67a5 5 0 0 1 5-5h150a5 5 0 0 1 5 5v110a5 5 0 0 1-5 5h-150a5 5 0 0 1-5-5z" stroke="#000" stroke-width="2" fill="#fcfcca"/><use xlink:href="#r" transform="matrix(1,0,0,1,433.3333333333331,866.6666666666667) translate(14.574999999999996 41.4)"/><use xlink:href="#e" transform="matrix(1,0,0,1,433.3333333333331,866.6666666666667) translate(44.05 63)"/><path d="M501.33 852.67v-43a5 5 0 0 0-5-5H321a5 5 0 0 1-5-5v-19.35" stroke="#000" stroke-width="2" fill="none"/><path d="M502.3 853.67h-1.94v-1.03h1.95z" stroke="#000" stroke-width=".05"/><path d="M316 757.67l12.5 21.65h-25z" stroke="#000" stroke-width="2" fill="#fff"/><path d="M50.67 859.67a5 5 0 0 1 5-5h150a5 5 0 0 1 5 5v110a5 5 0 0 1-5 5h-150a5 5 0 0 1-5-5z" stroke="#000" stroke-width="2" fill="#fcfcca"/><use xlink:href="#s" transform="matrix(1,0,0,1,62.66666666666663,866.6666666666667) translate(35.025 50.4)"/><path d="M236 859.67a5 5 0 0 1 5-5h150a5 5 0 0 1 5 5v110a5 5 0 0 1-5 5H241a5 5 0 0 1-5-5z" stroke="#000" stroke-width="2" fill="#fcfcca"/><use xlink:href="#t" transform="matrix(1,0,0,1,247.9999999999999,866.6666666666669) translate(20.074999999999996 50.4)"/><use xlink:href="#e" transform="matrix(1,0,0,1,247.9999999999999,866.6666666666669) translate(68.025 50.4)"/><path d="M316 852.67v-72.35" stroke="#000" stroke-width="2" fill="none"/><path d="M316.98 853.67h-1.96v-1.03h1.96z" stroke="#000" stroke-width=".05"/><path d="M316 757.67l12.5 21.65h-25z" stroke="#000" stroke-width="2" fill="#fff"/><path d="M130.67 852.67v-43a5 5 0 0 1 5-5H311a5 5 0 0 0 5-5v-19.35" stroke="#000" stroke-width="2" fill="none"/><path d="M131.64 853.67h-1.95v-1.03h1.94z" stroke="#000" stroke-width=".05"/><path d="M316 757.67l12.5 21.65h-25z" stroke="#000" stroke-width="2" fill="#fff"/><path d="M860 1047.67a5 5 0 0 1 5-5h150a5 5 0 0 1 5 5v110a5 5 0 0 1-5 5H865a5 5 0 0 1-5-5z" stroke="#000" stroke-width="2" fill="#edf5ff"/><use xlink:href="#u" transform="matrix(1,0,0,1,871.9999999999999,1054.6666666666665) translate(34.05 50.4)"/><path d="M940 1040.67v-40.35" stroke="#5e5e5e" stroke-width="2" fill="none"/><path d="M940.98 1041.67H939v-1.03H941z" stroke="#5e5e5e" stroke-width=".05" fill="#5e5e5e"/><path d="M940 977.67l12.5 21.65h-25z" stroke="#5e5e5e" stroke-width="2" fill="#fff"/><path d="M316.98 1009.7l-.1 1.06-.24 1.06-.42 1-.58.95-.7.83-.84.7-.93.58-1 .42-1.08.26-1.06.08H174.3v-1.95h135.66l.83-.07.75-.2.73-.3.67-.4.6-.5.5-.6.43-.68.3-.73.18-.77.06-.82v-23.58h1.96zm-185.34-4.7h-1.95v-28.33h1.94z" stroke="#5e5e5e" stroke-width=".05" fill="#5e5e5e"/><path d="M131.64 976.7h-1.95v-1.03h1.94z" fill="#5e5e5e"/><path stroke="#5e5e5e" stroke-width=".05" fill="#5e5e5e"/><path d="M326.84 994.5l-1.68.98-8.2-14.18.02 4.87h-1.96v-4.87l-8.18 14.18-1.68-.98L316 975.72zM502.3 1009.7l-.07 1.06-.26 1.06-.42 1-.57.95-.7.83-.84.7-.94.58-1 .42-1.07.26-1.06.08H174.3v-1.95h321l.82-.07.76-.2.73-.3.7-.4.58-.5.52-.6.4-.68.3-.73.2-.77.06-.82v-23.58h1.95zm-370.66-4.7h-1.95v-28.33h1.94z" stroke="#5e5e5e" stroke-width=".05" fill="#5e5e5e"/><path d="M131.64 976.7h-1.95v-1.03h1.94z" fill="#5e5e5e"/><path stroke="#5e5e5e" stroke-width=".05" fill="#5e5e5e"/><path d="M512.18 994.5l-1.7.98-8.17-14.18v4.87h-1.94v-4.87l-8.18 14.18-1.7-.98 10.85-18.78z" stroke="#5e5e5e" stroke-width=".05" fill="#5e5e5e"/><use xlink:href="#v" transform="matrix(1,0,0,1,105.30669777388964,1004.9999500000004) translate(0 14.222222222222223)"/><use xlink:href="#w" transform="matrix(1,0,0,1,105.30669777388964,1004.9999500000004) translate(35.50617283950618 14.222222222222223)"/><path d="M712.02 1009.63l.07.82.17.77.3.73.42.67.5.6.6.5.67.42.73.3.76.2.83.05h64.2v1.94H717l-1.04-.08-1.07-.26-1.02-.42-.93-.57-.84-.7-.7-.83-.57-.93-.42-1.02-.24-1.06-.08-1.05v-23.65h1.94zm172.76.08l-.1 1.06-.24 1.06-.42 1-.57.95-.72.83-.83.7-.93.58-1 .42-1.08.26-1.06.08H850.3v-1.95h27.46l.83-.07.75-.2.73-.3.67-.4.6-.5.5-.6.42-.68.3-.73.2-.77.06-.82v-32.96h1.95z" stroke="#5e5e5e" stroke-width=".05" fill="#5e5e5e"/><path d="M884.78 976.7h-1.95v-1.03h1.95z" fill="#5e5e5e"/><path stroke="#5e5e5e" stroke-width=".05" fill="#5e5e5e"/><path d="M721.9 994.5l-1.7.98-8.18-14.18v4.87h-1.94v-4.87l-8.2 14.18-1.67-.98 10.85-18.78z" stroke="#5e5e5e" stroke-width=".05" fill="#5e5e5e"/><use xlink:href="#v" transform="matrix(1,0,0,1,781.3066977738894,1004.9999874663207) translate(0 14.222222222222223)"/><use xlink:href="#w" transform="matrix(1,0,0,1,781.3066977738894,1004.9999874663207) translate(35.50617283950618 14.222222222222223)"/><path d="M236 425a5 5 0 0 1 5-5h150a5 5 0 0 1 5 5v110a5 5 0 0 1-5 5H241a5 5 0 0 1-5-5z" stroke="#000" stroke-width="2" fill="#fcfcca"/><use xlink:href="#x" transform="matrix(1,0,0,1,247.9999999999999,432) translate(31.5 50.4)"/><path d="M747.05 425a5 5 0 0 1 5-5h150a5 5 0 0 1 5 5v110a5 5 0 0 1-5 5h-150a5 5 0 0 1-5-5z" stroke="#000" stroke-width="2" fill="#fff"/><use xlink:href="#y" transform="matrix(1,0,0,1,759.0496114764114,432) translate(28.549999999999997 50.4)"/><path d="M316.98 632.67h-1.96V598h1.96zm0-56h-1.96V551.4h1.96z" stroke="#5e5e5e" stroke-width=".05" fill="#5e5e5e"/><path d="M316.98 633.67h-1.96v-1.03h1.96z" fill="#5e5e5e"/><path stroke="#5e5e5e" stroke-width=".05" fill="#5e5e5e"/><path d="M326.84 559.83l-1.68.98-8.2-14.16.02 4.86h-1.96v-4.86l-8.18 14.17-1.68-.97L316 541.05z" stroke="#5e5e5e" stroke-width=".05" fill="#5e5e5e"/><use xlink:href="#v" transform="matrix(1,0,0,1,261.80246913580237,576.6666666666666) translate(0 14.222222222222223)"/><use xlink:href="#z" transform="matrix(1,0,0,1,261.80246913580237,576.6666666666666) translate(35.50617283950618 14.222222222222223)"/><path d="M828.02 632.67h-1.94V598h1.94zm0-56h-1.94V551.4h1.94z" stroke="#5e5e5e" stroke-width=".05" fill="#5e5e5e"/><path d="M828.02 633.67h-1.94v-1.03h1.94z" fill="#5e5e5e"/><path stroke="#5e5e5e" stroke-width=".05" fill="#5e5e5e"/><path d="M837.9 559.83l-1.7.98-8.18-14.16v4.86h-1.94v-4.86l-8.2 14.17-1.67-.97 10.85-18.78z" stroke="#5e5e5e" stroke-width=".05" fill="#5e5e5e"/><use xlink:href="#v" transform="matrix(1,0,0,1,769.3705991307324,576.6666666666666) translate(0 14.222222222222223)"/><use xlink:href="#A" transform="matrix(1,0,0,1,769.3705991307324,576.6666666666666) translate(35.50617283950618 14.222222222222223)"/><path d="M398 480h323.4" stroke="#5e5e5e" stroke-width="2" fill="none"/><path d="M398.03 480.98H397v-1.96h1.03z" stroke="#5e5e5e" stroke-width=".05" fill="#5e5e5e"/><path d="M744.05 480l-21.65 12.5v-25z" stroke="#5e5e5e" stroke-width="2" fill="#fff"/><path d="M0 1162.66a6 6 0 0 1 6-6h119.5a6 6 0 0 1 6 6v62a6 6 0 0 1-6 6H6a6 6 0 0 1-6-6z" fill="none"/><g><use xlink:href="#B" transform="matrix(1,0,0,1,5,1161.6566666666665) translate(0 43.16666666666667)"/></g><path d="M1033.17 598.4a6 6 0 0 1 6-6h225.7a6 6 0 0 1 6 6v126.02a6 6 0 0 1-6 6h-225.7a6 6 0 0 1-6-6z" fill="none"/><g><use xlink:href="#C" transform="matrix(1,0,0,1,1038.1671825506755,597.4123228346456) translate(0 43.16666666666667)"/><use xlink:href="#D" transform="matrix(1,0,0,1,1038.1671825506755,597.4123228346456) translate(0 107.16666666666667)"/></g><path d="M66.32 1155.84l41.7-59.52" stroke="#e81313" stroke-width="2" fill="none"/><path d="M67.13 1156.38l-.2.28h-2.38l1-1.4z" stroke="#e81313" stroke-width=".05" fill="#e81313"/><path d="M116.8 1083.82l-4.4 14.35-7.6-5.33z" stroke="#e81313" stroke-width="2" fill="#e81313"/><path d="M1032.74 662.32L976 781.6" stroke="#e81313" stroke-width="2" fill="none"/><path d="M1033.17 662.55l-1.32-.63 1.32-2.77z" stroke="#e81313" stroke-width=".05" fill="#e81313"/><path d="M969.44 795.38l1.94-14.87 8.37 4z" stroke="#e81313" stroke-width="2" fill="#e81313"/><defs><path d="M24-231v-30h32v30H24zM24 0v-190h32V0H24" id="E"/><path d="M135-143c-3-34-86-38-87 0 15 53 115 12 119 90S17 21 10-45l28-5c4 36 97 45 98 0-10-56-113-15-118-90-4-57 82-63 122-42 12 7 21 19 24 35" id="F"/><g id="a"><use transform="matrix(0.05,0,0,0.05,0,0)" xlink:href="#E"/><use transform="matrix(0.05,0,0,0.05,3.95,0)" xlink:href="#F"/></g><path d="M117-194c89-4 53 116 60 194h-32v-121c0-31-8-49-39-48C34-167 62-67 57 0H25l-1-190h30c1 10-1 24 2 32 11-22 29-35 61-36" id="G"/><path d="M141-36C126-15 110 5 73 4 37 3 15-17 15-53c-1-64 63-63 125-63 3-35-9-54-41-54-24 1-41 7-42 31l-33-3c5-37 33-52 76-52 45 0 72 20 72 64v82c-1 20 7 32 28 27v20c-31 9-61-2-59-35zM48-53c0 20 12 33 32 33 41-3 63-29 60-74-43 2-92-5-92 41" id="H"/><path d="M210-169c-67 3-38 105-44 169h-31v-121c0-29-5-50-35-48C34-165 62-65 56 0H25l-1-190h30c1 10-1 24 2 32 10-44 99-50 107 0 11-21 27-35 58-36 85-2 47 119 55 194h-31v-121c0-29-5-49-35-48" id="I"/><path d="M100-194c63 0 86 42 84 106H49c0 40 14 67 53 68 26 1 43-12 49-29l28 8c-11 28-37 45-77 45C44 4 14-33 15-96c1-61 26-98 85-98zm52 81c6-60-76-77-97-28-3 7-6 17-6 28h103" id="J"/><g id="b"><use transform="matrix(0.05,0,0,0.05,0,0)" xlink:href="#G"/><use transform="matrix(0.05,0,0,0.05,10,0)" xlink:href="#H"/><use transform="matrix(0.05,0,0,0.05,20,0)" xlink:href="#I"/><use transform="matrix(0.05,0,0,0.05,34.95,0)" xlink:href="#J"/></g><path d="M101-234c-31-9-42 10-38 44h38v23H63V0H32v-167H5v-23h27c-7-52 17-82 69-68v24" id="K"/><path d="M100-194c62-1 85 37 85 99 1 63-27 99-86 99S16-35 15-95c0-66 28-99 85-99zM99-20c44 1 53-31 53-75 0-43-8-75-51-75s-53 32-53 75 10 74 51 75" id="L"/><path d="M114-163C36-179 61-72 57 0H25l-1-190h30c1 12-1 29 2 39 6-27 23-49 58-41v29" id="M"/><g id="c"><use transform="matrix(0.05,0,0,0.05,0,0)" xlink:href="#K"/><use transform="matrix(0.05,0,0,0.05,5,0)" xlink:href="#L"/><use transform="matrix(0.05,0,0,0.05,15,0)" xlink:href="#M"/></g><path d="M212-179c-10-28-35-45-73-45-59 0-87 40-87 99 0 60 29 101 89 101 43 0 62-24 78-52l27 14C228-24 195 4 139 4 59 4 22-46 18-125c-6-104 99-153 187-111 19 9 31 26 39 46" id="N"/><path d="M115-194c55 1 70 41 70 98S169 2 115 4C84 4 66-9 55-30l1 105H24l-1-265h31l2 30c10-21 28-34 59-34zm-8 174c40 0 45-34 45-75s-6-73-45-74c-42 0-51 32-51 76 0 43 10 73 51 73" id="O"/><path d="M84 4C-5 8 30-112 23-190h32v120c0 31 7 50 39 49 72-2 45-101 50-169h31l1 190h-30c-1-10 1-25-2-33-11 22-28 36-60 37" id="P"/><path d="M85-194c31 0 48 13 60 33l-1-100h32l1 261h-30c-2-10 0-23-3-31C134-8 116 4 85 4 32 4 16-35 15-94c0-66 23-100 70-100zm9 24c-40 0-46 34-46 75 0 40 6 74 45 74 42 0 51-32 51-76 0-42-9-74-50-73" id="Q"/><g id="d"><use transform="matrix(0.05,0,0,0.05,0,0)" xlink:href="#N"/><use transform="matrix(0.05,0,0,0.05,12.950000000000001,0)" xlink:href="#L"/><use transform="matrix(0.05,0,0,0.05,22.950000000000003,0)" xlink:href="#I"/><use transform="matrix(0.05,0,0,0.05,37.900000000000006,0)" xlink:href="#O"/><use transform="matrix(0.05,0,0,0.05,47.900000000000006,0)" xlink:href="#L"/><use transform="matrix(0.05,0,0,0.05,57.900000000000006,0)" xlink:href="#P"/><use transform="matrix(0.05,0,0,0.05,67.9,0)" xlink:href="#G"/><use transform="matrix(0.05,0,0,0.05,77.9,0)" xlink:href="#Q"/></g><path d="M190 0L58-211 59 0H30v-248h39L202-35l-2-213h31V0h-41" id="R"/><g id="e"><use transform="matrix(0.05,0,0,0.05,0,0)" xlink:href="#R"/><use transform="matrix(0.05,0,0,0.05,12.950000000000001,0)" xlink:href="#H"/><use transform="matrix(0.05,0,0,0.05,22.950000000000003,0)" xlink:href="#I"/><use transform="matrix(0.05,0,0,0.05,37.900000000000006,0)" xlink:href="#J"/></g><path d="M115-194c53 0 69 39 70 98 0 66-23 100-70 100C84 3 66-7 56-30L54 0H23l1-261h32v101c10-23 28-34 59-34zm-8 174c40 0 45-34 45-75 0-40-5-75-45-74-42 0-51 32-51 76 0 43 10 73 51 73" id="S"/><path d="M24 0v-261h32V0H24" id="T"/><g id="f"><use transform="matrix(0.05,0,0,0.05,0,0)" xlink:href="#R"/><use transform="matrix(0.05,0,0,0.05,12.950000000000001,0)" xlink:href="#H"/><use transform="matrix(0.05,0,0,0.05,22.950000000000003,0)" xlink:href="#I"/><use transform="matrix(0.05,0,0,0.05,37.900000000000006,0)" xlink:href="#H"/><use transform="matrix(0.05,0,0,0.05,47.900000000000006,0)" xlink:href="#S"/><use transform="matrix(0.05,0,0,0.05,57.900000000000006,0)" xlink:href="#T"/><use transform="matrix(0.05,0,0,0.05,61.85,0)" xlink:href="#J"/></g><path d="M140-251c81 0 123 46 123 126C263-46 219 4 140 4 59 4 17-45 17-125s42-126 123-126zm0 227c63 0 89-41 89-101s-29-99-89-99c-61 0-89 39-89 99S79-25 140-24" id="U"/><path d="M24-231v-30h32v30H24zM-9 49c24 4 33-6 33-30v-209h32V24c2 40-23 58-65 49V49" id="V"/><path d="M96-169c-40 0-48 33-48 73s9 75 48 75c24 0 41-14 43-38l32 2c-6 37-31 61-74 61-59 0-76-41-82-99-10-93 101-131 147-64 4 7 5 14 7 22l-32 3c-4-21-16-35-41-35" id="W"/><path d="M59-47c-2 24 18 29 38 22v24C64 9 27 4 27-40v-127H5v-23h24l9-43h21v43h35v23H59v120" id="X"/><g id="g"><use transform="matrix(0.05,0,0,0.05,0,0)" xlink:href="#U"/><use transform="matrix(0.05,0,0,0.05,14,0)" xlink:href="#S"/><use transform="matrix(0.05,0,0,0.05,24,0)" xlink:href="#V"/><use transform="matrix(0.05,0,0,0.05,27.950000000000003,0)" xlink:href="#J"/><use transform="matrix(0.05,0,0,0.05,37.95,0)" xlink:href="#W"/><use transform="matrix(0.05,0,0,0.05,46.95,0)" xlink:href="#X"/></g><path d="M30-248c87 1 191-15 191 75 0 78-77 80-158 76V0H30v-248zm33 125c57 0 124 11 124-50 0-59-68-47-124-48v98" id="Y"/><g id="h"><use transform="matrix(0.05,0,0,0.05,0,0)" xlink:href="#Y"/><use transform="matrix(0.05,0,0,0.05,12,0)" xlink:href="#H"/><use transform="matrix(0.05,0,0,0.05,22,0)" xlink:href="#M"/><use transform="matrix(0.05,0,0,0.05,27.950000000000003,0)" xlink:href="#W"/><use transform="matrix(0.05,0,0,0.05,36.95,0)" xlink:href="#J"/><use transform="matrix(0.05,0,0,0.05,46.95,0)" xlink:href="#T"/></g><g id="i"><use transform="matrix(0.05,0,0,0.05,0,0)" xlink:href="#Y"/><use transform="matrix(0.05,0,0,0.05,12,0)" xlink:href="#H"/><use transform="matrix(0.05,0,0,0.05,22,0)" xlink:href="#M"/><use transform="matrix(0.05,0,0,0.05,27.950000000000003,0)" xlink:href="#W"/><use transform="matrix(0.05,0,0,0.05,36.95,0)" xlink:href="#J"/><use transform="matrix(0.05,0,0,0.05,46.95,0)" xlink:href="#T"/></g><path d="M205 0l-28-72H64L36 0H1l101-248h38L239 0h-34zm-38-99l-47-123c-12 45-31 82-46 123h93" id="Z"/><path d="M177-190C167-65 218 103 67 71c-23-6-38-20-44-43l32-5c15 47 100 32 89-28v-30C133-14 115 1 83 1 29 1 15-40 15-95c0-56 16-97 71-98 29-1 48 16 59 35 1-10 0-23 2-32h30zM94-22c36 0 50-32 50-73 0-42-14-75-50-75-39 0-46 34-46 75s6 73 46 73" id="aa"/><g id="j"><use transform="matrix(0.05,0,0,0.05,0,0)" xlink:href="#Z"/><use transform="matrix(0.05,0,0,0.05,12,0)" xlink:href="#aa"/><use transform="matrix(0.05,0,0,0.05,22,0)" xlink:href="#aa"/><use transform="matrix(0.05,0,0,0.05,32,0)" xlink:href="#M"/><use transform="matrix(0.05,0,0,0.05,37.95,0)" xlink:href="#J"/><use transform="matrix(0.05,0,0,0.05,47.95,0)" xlink:href="#aa"/><use transform="matrix(0.05,0,0,0.05,57.95,0)" xlink:href="#H"/><use transform="matrix(0.05,0,0,0.05,67.95,0)" xlink:href="#X"/><use transform="matrix(0.05,0,0,0.05,72.95,0)" xlink:href="#J"/></g><path d="M63-220v92h138v28H63V0H30v-248h175v28H63" id="ab"/><g id="k"><use transform="matrix(0.05,0,0,0.05,0,0)" xlink:href="#ab"/><use transform="matrix(0.05,0,0,0.05,10.950000000000001,0)" xlink:href="#J"/><use transform="matrix(0.05,0,0,0.05,20.950000000000003,0)" xlink:href="#H"/><use transform="matrix(0.05,0,0,0.05,30.950000000000003,0)" xlink:href="#X"/><use transform="matrix(0.05,0,0,0.05,35.95,0)" xlink:href="#P"/><use transform="matrix(0.05,0,0,0.05,45.95,0)" xlink:href="#M"/><use transform="matrix(0.05,0,0,0.05,51.900000000000006,0)" xlink:href="#J"/><use transform="matrix(0.05,0,0,0.05,61.900000000000006,0)" xlink:href="#F"/></g><path d="M67-125c0 53 21 87 73 88 37 1 54-22 65-47l45 17C233-25 199 4 140 4 58 4 20-42 15-125 8-235 124-281 211-232c18 10 29 29 36 50l-46 12c-8-25-30-41-62-41-52 0-71 34-72 86" id="ac"/><path d="M133-34C117-15 103 5 69 4 32 3 11-16 11-54c-1-60 55-63 116-61 1-26-3-47-28-47-18 1-26 9-28 27l-52-2c7-38 36-58 82-57s74 22 75 68l1 82c-1 14 12 18 25 15v27c-30 8-71 5-69-32zm-48 3c29 0 43-24 42-57-32 0-66-3-65 30 0 17 8 27 23 27" id="ad"/><path d="M88-194c31-1 46 15 58 34l-1-101h50l1 261h-48c-2-10 0-23-3-31C134-8 116 4 84 4 32 4 16-41 15-95c0-56 19-97 73-99zm17 164c33 0 40-30 41-66 1-37-9-64-41-64s-38 30-39 65c0 43 13 65 39 65" id="ae"/><path d="M137-138c1-29-70-34-71-4 15 46 118 7 119 86 1 83-164 76-172 9l43-7c4 19 20 25 44 25 33 8 57-30 24-41C81-84 22-81 20-136c-2-80 154-74 161-7" id="af"/><path d="M115-3C79 11 28 4 28-45v-112H4v-33h27l15-45h31v45h36v33H77v99c-1 23 16 31 38 25v30" id="ag"/><path d="M135-150c-39-12-60 13-60 57V0H25l-1-190h47c2 13-1 29 3 40 6-28 27-53 61-41v41" id="ah"/><path d="M185-48c-13 30-37 53-82 52C43 2 14-33 14-96s30-98 90-98c62 0 83 45 84 108H66c0 31 8 55 39 56 18 0 30-7 34-22zm-45-69c5-46-57-63-70-21-2 6-4 13-4 21h74" id="ai"/><g id="l"><use transform="matrix(0.06172839506172839,0,0,0.06172839506172839,0,0)" xlink:href="#ac"/><use transform="matrix(0.06172839506172839,0,0,0.06172839506172839,15.987654320987653,0)" xlink:href="#ad"/><use transform="matrix(0.06172839506172839,0,0,0.06172839506172839,28.333333333333332,0)" xlink:href="#ae"/><use transform="matrix(0.06172839506172839,0,0,0.06172839506172839,41.85185185185185,0)" xlink:href="#ad"/><use transform="matrix(0.06172839506172839,0,0,0.06172839506172839,54.197530864197525,0)" xlink:href="#af"/><use transform="matrix(0.06172839506172839,0,0,0.06172839506172839,66.5432098765432,0)" xlink:href="#ag"/><use transform="matrix(0.06172839506172839,0,0,0.06172839506172839,73.88888888888889,0)" xlink:href="#ah"/><use transform="matrix(0.06172839506172839,0,0,0.06172839506172839,82.53086419753086,0)" xlink:href="#ai"/><path d="M-1.1 1.2H96V3.5H-1.1z"/></g><path d="M199 0l-22-63H83L61 0H9l90-248h61L250 0h-51zm-33-102l-36-108c-10 38-24 72-36 108h72" id="aj"/><path d="M76-54c-1 42 2 86-19 110H24C36 42 46 24 48 0H25v-54h51" id="ak"/><g id="m"><use transform="matrix(0.06172839506172839,0,0,0.06172839506172839,0,0)" xlink:href="#aj"/><use transform="matrix(0.06172839506172839,0,0,0.06172839506172839,15.987654320987653,0)" xlink:href="#ae"/><use transform="matrix(0.06172839506172839,0,0,0.06172839506172839,29.50617283950617,0)" xlink:href="#ae"/><use transform="matrix(0.06172839506172839,0,0,0.06172839506172839,43.02469135802469,0)" xlink:href="#ah"/><use transform="matrix(0.06172839506172839,0,0,0.06172839506172839,50.432098765432094,0)" xlink:href="#ak"/><path d="M-1.1 1.2h65V3.5h-65z"/></g><path d="M67-125c0 54 23 88 75 88 28 0 53-7 68-21v-34h-60v-39h108v91C232-14 192 4 140 4 58 4 20-42 15-125 8-236 126-280 215-234c19 10 29 26 37 47l-47 15c-11-23-29-39-63-39-53 1-75 33-75 86" id="al"/><path d="M175 0L67-191c6 58 2 128 3 191H24v-248h59L193-55c-6-58-2-129-3-193h46V0h-61" id="am"/><g id="n"><use transform="matrix(0.06172839506172839,0,0,0.06172839506172839,0,0)" xlink:href="#al"/><use transform="matrix(0.06172839506172839,0,0,0.06172839506172839,17.28395061728395,0)" xlink:href="#am"/><use transform="matrix(0.06172839506172839,0,0,0.06172839506172839,33.2716049382716,0)" xlink:href="#ak"/><path d="M-1.1 1.2h47.83V3.5H-1.1z"/></g><path d="M240-174c0 40-23 61-54 70L253 0h-59l-57-94H76V0H24v-248c93 4 217-23 216 74zM76-134c48-2 112 12 112-38 0-48-66-32-112-35v73" id="an"/><path d="M110-194c64 0 96 36 96 99 0 64-35 99-97 99-61 0-95-36-95-99 0-62 34-99 96-99zm-1 164c35 0 45-28 45-65 0-40-10-65-43-65-34 0-45 26-45 65 0 36 10 65 43 65" id="ao"/><g id="o"><use transform="matrix(0.06172839506172839,0,0,0.06172839506172839,0,0)" xlink:href="#an"/><use transform="matrix(0.06172839506172839,0,0,0.06172839506172839,15.987654320987653,0)" xlink:href="#ao"/><use transform="matrix(0.06172839506172839,0,0,0.06172839506172839,29.50617283950617,0)" xlink:href="#ad"/><use transform="matrix(0.06172839506172839,0,0,0.06172839506172839,41.85185185185185,0)" xlink:href="#ae"/><use transform="matrix(0.06172839506172839,0,0,0.06172839506172839,55.37037037037037,0)" xlink:href="#af"/><path d="M-1.1 1.2h69.93V3.5H-1.1z"/></g><g id="p"><use transform="matrix(0.05,0,0,0.05,0,0)" xlink:href="#ab"/><use transform="matrix(0.05,0,0,0.05,10.950000000000001,0)" xlink:href="#J"/><use transform="matrix(0.05,0,0,0.05,20.950000000000003,0)" xlink:href="#H"/><use transform="matrix(0.05,0,0,0.05,30.950000000000003,0)" xlink:href="#X"/><use transform="matrix(0.05,0,0,0.05,35.95,0)" xlink:href="#P"/><use transform="matrix(0.05,0,0,0.05,45.95,0)" xlink:href="#M"/><use transform="matrix(0.05,0,0,0.05,51.900000000000006,0)" xlink:href="#J"/></g><g id="q"><use transform="matrix(0.05,0,0,0.05,0,0)" xlink:href="#R"/><use transform="matrix(0.05,0,0,0.05,12.950000000000001,0)" xlink:href="#H"/><use transform="matrix(0.05,0,0,0.05,22.950000000000003,0)" xlink:href="#I"/><use transform="matrix(0.05,0,0,0.05,37.900000000000006,0)" xlink:href="#E"/><use transform="matrix(0.05,0,0,0.05,41.85000000000001,0)" xlink:href="#G"/><use transform="matrix(0.05,0,0,0.05,51.85,0)" xlink:href="#aa"/></g><path d="M143 4C61 4 22-44 18-125c-5-107 100-154 193-111 17 8 29 25 37 43l-32 9c-13-25-37-40-76-40-61 0-88 39-88 99 0 61 29 100 91 101 35 0 62-11 79-27v-45h-74v-28h105v86C228-13 192 4 143 4" id="ap"/><path d="M106-169C34-169 62-67 57 0H25v-261h32l-1 103c12-21 28-36 61-36 89 0 53 116 60 194h-32v-121c2-32-8-49-39-48" id="aq"/><g id="r"><use transform="matrix(0.05,0,0,0.05,0,0)" xlink:href="#ap"/><use transform="matrix(0.05,0,0,0.05,14,0)" xlink:href="#J"/><use transform="matrix(0.05,0,0,0.05,24,0)" xlink:href="#L"/><use transform="matrix(0.05,0,0,0.05,34,0)" xlink:href="#aa"/><use transform="matrix(0.05,0,0,0.05,44,0)" xlink:href="#M"/><use transform="matrix(0.05,0,0,0.05,49.95,0)" xlink:href="#H"/><use transform="matrix(0.05,0,0,0.05,59.95,0)" xlink:href="#O"/><use transform="matrix(0.05,0,0,0.05,69.95,0)" xlink:href="#aq"/><use transform="matrix(0.05,0,0,0.05,79.95,0)" xlink:href="#E"/><use transform="matrix(0.05,0,0,0.05,83.9,0)" xlink:href="#W"/><use transform="matrix(0.05,0,0,0.05,92.9,0)" xlink:href="#H"/><use transform="matrix(0.05,0,0,0.05,102.9,0)" xlink:href="#T"/></g><g id="s"><use transform="matrix(0.05,0,0,0.05,0,0)" xlink:href="#Z"/><use transform="matrix(0.05,0,0,0.05,12,0)" xlink:href="#Q"/><use transform="matrix(0.05,0,0,0.05,22,0)" xlink:href="#Q"/><use transform="matrix(0.05,0,0,0.05,32,0)" xlink:href="#M"/><use transform="matrix(0.05,0,0,0.05,37.95,0)" xlink:href="#J"/><use transform="matrix(0.05,0,0,0.05,47.95,0)" xlink:href="#F"/><use transform="matrix(0.05,0,0,0.05,56.95,0)" xlink:href="#F"/></g><path d="M233-177c-1 41-23 64-60 70L243 0h-38l-65-103H63V0H30v-248c88 3 205-21 203 71zM63-129c60-2 137 13 137-47 0-61-80-42-137-45v92" id="ar"/><g id="t"><use transform="matrix(0.05,0,0,0.05,0,0)" xlink:href="#ar"/><use transform="matrix(0.05,0,0,0.05,12.950000000000001,0)" xlink:href="#L"/><use transform="matrix(0.05,0,0,0.05,22.950000000000003,0)" xlink:href="#H"/><use transform="matrix(0.05,0,0,0.05,32.95,0)" xlink:href="#Q"/></g><path d="M179-190L93 31C79 59 56 82 12 73V49c39 6 53-20 64-50L1-190h34L92-34l54-156h33" id="as"/><g id="u"><use transform="matrix(0.05,0,0,0.05,0,0)" xlink:href="#Y"/><use transform="matrix(0.05,0,0,0.05,12,0)" xlink:href="#M"/><use transform="matrix(0.05,0,0,0.05,17.95,0)" xlink:href="#L"/><use transform="matrix(0.05,0,0,0.05,27.950000000000003,0)" xlink:href="#O"/><use transform="matrix(0.05,0,0,0.05,37.95,0)" xlink:href="#J"/><use transform="matrix(0.05,0,0,0.05,47.95,0)" xlink:href="#M"/><use transform="matrix(0.05,0,0,0.05,53.900000000000006,0)" xlink:href="#X"/><use transform="matrix(0.05,0,0,0.05,58.900000000000006,0)" xlink:href="#as"/></g><path fill="#333" d="M114-157C55-157 80-60 75 0H25v-261h50l-1 109c12-26 28-41 61-42 86-1 58 113 63 194h-50c-7-57 23-157-34-157" id="at"/><path fill="#333" d="M133-34C117-15 103 5 69 4 32 3 11-16 11-54c-1-60 55-63 116-61 1-26-3-47-28-47-18 1-26 9-28 27l-52-2c7-38 36-58 82-57s74 22 75 68l1 82c-1 14 12 18 25 15v27c-30 8-71 5-69-32zm-48 3c29 0 43-24 42-57-32 0-66-3-65 30 0 17 8 27 23 27" id="au"/><path fill="#333" d="M137-138c1-29-70-34-71-4 15 46 118 7 119 86 1 83-164 76-172 9l43-7c4 19 20 25 44 25 33 8 57-30 24-41C81-84 22-81 20-136c-2-80 154-74 161-7" id="av"/><g id="v"><use transform="matrix(0.04938271604938272,0,0,0.04938271604938272,0,0)" xlink:href="#at"/><use transform="matrix(0.04938271604938272,0,0,0.04938271604938272,10.814814814814815,0)" xlink:href="#au"/><use transform="matrix(0.04938271604938272,0,0,0.04938271604938272,20.69135802469136,0)" xlink:href="#av"/></g><path fill="#333" d="M135-194c53 0 70 44 70 98 0 56-19 98-73 100-31 1-45-17-59-34 3 33 2 69 2 105H25l-1-265h48c2 10 0 23 3 31 11-24 29-35 60-35zM114-30c33 0 39-31 40-66 0-38-9-64-40-64-56 0-55 130 0 130" id="aw"/><path fill="#333" d="M135-150c-39-12-60 13-60 57V0H25l-1-190h47c2 13-1 29 3 40 6-28 27-53 61-41v41" id="ax"/><path fill="#333" d="M115-3C79 11 28 4 28-45v-112H4v-33h27l15-45h31v45h36v33H77v99c-1 23 16 31 38 25v30" id="ay"/><g id="w"><use transform="matrix(0.04938271604938272,0,0,0.04938271604938272,0,0)" xlink:href="#aw"/><use transform="matrix(0.04938271604938272,0,0,0.04938271604938272,10.814814814814815,0)" xlink:href="#au"/><use transform="matrix(0.04938271604938272,0,0,0.04938271604938272,20.69135802469136,0)" xlink:href="#ax"/><use transform="matrix(0.04938271604938272,0,0,0.04938271604938272,27.604938271604947,0)" xlink:href="#ay"/></g><g id="x"><use transform="matrix(0.05,0,0,0.05,0,0)" xlink:href="#ap"/><use transform="matrix(0.05,0,0,0.05,14,0)" xlink:href="#J"/><use transform="matrix(0.05,0,0,0.05,24,0)" xlink:href="#L"/><use transform="matrix(0.05,0,0,0.05,34,0)" xlink:href="#W"/><use transform="matrix(0.05,0,0,0.05,43,0)" xlink:href="#L"/><use transform="matrix(0.05,0,0,0.05,53,0)" xlink:href="#Q"/><use transform="matrix(0.05,0,0,0.05,63,0)" xlink:href="#J"/></g><g id="y"><use transform="matrix(0.05,0,0,0.05,0,0)" xlink:href="#ap"/><use transform="matrix(0.05,0,0,0.05,14,0)" xlink:href="#J"/><use transform="matrix(0.05,0,0,0.05,24,0)" xlink:href="#L"/><use transform="matrix(0.05,0,0,0.05,34,0)" xlink:href="#I"/><use transform="matrix(0.05,0,0,0.05,48.95,0)" xlink:href="#J"/><use transform="matrix(0.05,0,0,0.05,58.95,0)" xlink:href="#X"/><use transform="matrix(0.05,0,0,0.05,63.95,0)" xlink:href="#M"/><use transform="matrix(0.05,0,0,0.05,69.9,0)" xlink:href="#as"/></g><path fill="#333" d="M195-6C206 82 75 100 31 46c-4-6-6-13-8-21l49-6c3 16 16 24 34 25 40 0 42-37 40-79-11 22-30 35-61 35-53 0-70-43-70-97 0-56 18-96 73-97 30 0 46 14 59 34l2-30h47zm-90-29c32 0 41-27 41-63 0-35-9-62-40-62-32 0-39 29-40 63 0 36 9 62 39 62" id="az"/><path fill="#333" d="M185-48c-13 30-37 53-82 52C43 2 14-33 14-96s30-98 90-98c62 0 83 45 84 108H66c0 31 8 55 39 56 18 0 30-7 34-22zm-45-69c5-46-57-63-70-21-2 6-4 13-4 21h74" id="aA"/><path fill="#333" d="M110-194c64 0 96 36 96 99 0 64-35 99-97 99-61 0-95-36-95-99 0-62 34-99 96-99zm-1 164c35 0 45-28 45-65 0-40-10-65-43-65-34 0-45 26-45 65 0 36 10 65 43 65" id="aB"/><path fill="#333" d="M190-63c-7 42-38 67-86 67-59 0-84-38-90-98-12-110 154-137 174-36l-49 2c-2-19-15-32-35-32-30 0-35 28-38 64-6 74 65 87 74 30" id="aC"/><path fill="#333" d="M88-194c31-1 46 15 58 34l-1-101h50l1 261h-48c-2-10 0-23-3-31C134-8 116 4 84 4 32 4 16-41 15-95c0-56 19-97 73-99zm17 164c33 0 40-30 41-66 1-37-9-64-41-64s-38 30-39 65c0 43 13 65 39 65" id="aD"/><g id="z"><use transform="matrix(0.04938271604938272,0,0,0.04938271604938272,0,0)" xlink:href="#az"/><use transform="matrix(0.04938271604938272,0,0,0.04938271604938272,10.814814814814815,0)" xlink:href="#aA"/><use transform="matrix(0.04938271604938272,0,0,0.04938271604938272,20.69135802469136,0)" xlink:href="#aB"/><use transform="matrix(0.04938271604938272,0,0,0.04938271604938272,31.506172839506174,0)" xlink:href="#aC"/><use transform="matrix(0.04938271604938272,0,0,0.04938271604938272,41.38271604938272,0)" xlink:href="#aB"/><use transform="matrix(0.04938271604938272,0,0,0.04938271604938272,52.19753086419754,0)" xlink:href="#aD"/><use transform="matrix(0.04938271604938272,0,0,0.04938271604938272,63.01234567901235,0)" xlink:href="#aA"/></g><path fill="#333" d="M220-157c-53 9-28 100-34 157h-49v-107c1-27-5-49-29-50C55-147 81-57 75 0H25l-1-190h47c2 12-1 28 3 38 10-53 101-56 108 0 13-22 24-43 59-42 82 1 51 116 57 194h-49v-107c-1-25-5-48-29-50" id="aE"/><path fill="#333" d="M123 10C108 53 80 86 19 72V37c35 8 53-11 59-39L3-190h52l48 148c12-52 28-100 44-148h51" id="aF"/><g id="A"><use transform="matrix(0.04938271604938272,0,0,0.04938271604938272,0,0)" xlink:href="#az"/><use transform="matrix(0.04938271604938272,0,0,0.04938271604938272,10.814814814814815,0)" xlink:href="#aA"/><use transform="matrix(0.04938271604938272,0,0,0.04938271604938272,20.69135802469136,0)" xlink:href="#aB"/><use transform="matrix(0.04938271604938272,0,0,0.04938271604938272,31.506172839506174,0)" xlink:href="#aE"/><use transform="matrix(0.04938271604938272,0,0,0.04938271604938272,47.308641975308646,0)" xlink:href="#aA"/><use transform="matrix(0.04938271604938272,0,0,0.04938271604938272,57.18518518518519,0)" xlink:href="#ay"/><use transform="matrix(0.04938271604938272,0,0,0.04938271604938272,63.061728395061735,0)" xlink:href="#ax"/><use transform="matrix(0.04938271604938272,0,0,0.04938271604938272,69.97530864197532,0)" xlink:href="#aF"/></g><path fill="#e81313" d="M140-251c81 0 123 46 123 126C263-53 228-8 163 1c7 30 30 48 69 40v23c-55 16-95-15-103-61C56-3 17-48 17-125c0-80 42-126 123-126zm0 227c63 0 89-41 89-101s-29-99-89-99c-61 0-89 39-89 99S79-25 140-24" id="aG"/><path fill="#e81313" d="M205 0l-28-72H64L36 0H1l101-248h38L239 0h-34zm-38-99l-47-123c-12 45-31 82-46 123h93" id="aH"/><path fill="#e81313" d="M30 0v-248h33v221h125V0H30" id="aI"/><path fill="#e81313" d="M33 0v-248h34V0H33" id="aJ"/><g id="B"><use transform="matrix(0.14814814814814817,0,0,0.14814814814814817,0,0)" xlink:href="#aG"/><use transform="matrix(0.14814814814814817,0,0,0.14814814814814817,41.48148148148149,0)" xlink:href="#aH"/><use transform="matrix(0.14814814814814817,0,0,0.14814814814814817,77.03703703703702,0)" xlink:href="#aI"/><use transform="matrix(0.14814814814814817,0,0,0.14814814814814817,106.66666666666666,0)" xlink:href="#aJ"/></g><path fill="#e81313" d="M212-179c-10-28-35-45-73-45-59 0-87 40-87 99 0 60 29 101 89 101 43 0 62-24 78-52l27 14C228-24 195 4 139 4 59 4 22-46 18-125c-6-104 99-153 187-111 19 9 31 26 39 46" id="aK"/><path fill="#e81313" d="M141-36C126-15 110 5 73 4 37 3 15-17 15-53c-1-64 63-63 125-63 3-35-9-54-41-54-24 1-41 7-42 31l-33-3c5-37 33-52 76-52 45 0 72 20 72 64v82c-1 20 7 32 28 27v20c-31 9-61-2-59-35zM48-53c0 20 12 33 32 33 41-3 63-29 60-74-43 2-92-5-92 41" id="aL"/><path fill="#e81313" d="M85-194c31 0 48 13 60 33l-1-100h32l1 261h-30c-2-10 0-23-3-31C134-8 116 4 85 4 32 4 16-35 15-94c0-66 23-100 70-100zm9 24c-40 0-46 34-46 75 0 40 6 74 45 74 42 0 51-32 51-76 0-42-9-74-50-73" id="aM"/><path fill="#e81313" d="M135-143c-3-34-86-38-87 0 15 53 115 12 119 90S17 21 10-45l28-5c4 36 97 45 98 0-10-56-113-15-118-90-4-57 82-63 122-42 12 7 21 19 24 35" id="aN"/><path fill="#e81313" d="M59-47c-2 24 18 29 38 22v24C64 9 27 4 27-40v-127H5v-23h24l9-43h21v43h35v23H59v120" id="aO"/><path fill="#e81313" d="M114-163C36-179 61-72 57 0H25l-1-190h30c1 12-1 29 2 39 6-27 23-49 58-41v29" id="aP"/><path fill="#e81313" d="M24 0v-261h32V0H24" id="aQ"/><g id="C"><use transform="matrix(0.14814814814814817,0,0,0.14814814814814817,0,0)" xlink:href="#aK"/><use transform="matrix(0.14814814814814817,0,0,0.14814814814814817,38.370370370370374,0)" xlink:href="#aL"/><use transform="matrix(0.14814814814814817,0,0,0.14814814814814817,68,0)" xlink:href="#aM"/><use transform="matrix(0.14814814814814817,0,0,0.14814814814814817,97.62962962962962,0)" xlink:href="#aL"/><use transform="matrix(0.14814814814814817,0,0,0.14814814814814817,127.25925925925925,0)" xlink:href="#aN"/><use transform="matrix(0.14814814814814817,0,0,0.14814814814814817,153.92592592592592,0)" xlink:href="#aO"/><use transform="matrix(0.14814814814814817,0,0,0.14814814814814817,168.74074074074073,0)" xlink:href="#aP"/><use transform="matrix(0.14814814814814817,0,0,0.14814814814814817,186.37037037037038,0)" xlink:href="#aL"/><use transform="matrix(0.14814814814814817,0,0,0.14814814814814817,216,0)" xlink:href="#aQ"/></g><path fill="#e81313" d="M179-190L93 31C79 59 56 82 12 73V49c39 6 53-20 64-50L1-190h34L92-34l54-156h33" id="aR"/><path fill="#e81313" d="M100-194c63 0 86 42 84 106H49c0 40 14 67 53 68 26 1 43-12 49-29l28 8c-11 28-37 45-77 45C44 4 14-33 15-96c1-61 26-98 85-98zm52 81c6-60-76-77-97-28-3 7-6 17-6 28h103" id="aS"/><path fill="#e81313" d="M210-169c-67 3-38 105-44 169h-31v-121c0-29-5-50-35-48C34-165 62-65 56 0H25l-1-190h30c1 10-1 24 2 32 10-44 99-50 107 0 11-21 27-35 58-36 85-2 47 119 55 194h-31v-121c0-29-5-49-35-48" id="aT"/><g id="D"><use transform="matrix(0.14814814814814817,0,0,0.14814814814814817,0,0)" xlink:href="#aN"/><use transform="matrix(0.14814814814814817,0,0,0.14814814814814817,26.66666666666667,0)" xlink:href="#aR"/><use transform="matrix(0.14814814814814817,0,0,0.14814814814814817,53.33333333333334,0)" xlink:href="#aN"/><use transform="matrix(0.14814814814814817,0,0,0.14814814814814817,80.00000000000001,0)" xlink:href="#aO"/><use transform="matrix(0.14814814814814817,0,0,0.14814814814814817,94.81481481481484,0)" xlink:href="#aS"/><use transform="matrix(0.14814814814814817,0,0,0.14814814814814817,124.44444444444447,0)" xlink:href="#aT"/></g></defs></g></svg>