<svg xmlns="http://www.w3.org/2000/svg" xmlns:xlink="http://www.w3.org/1999/xlink" xmlns:lucid="lucid" width="1009.08" height="731.78"><g transform="translate(-633.4999999999998 -336.3333333333333)" lucid:page-tab-id="P6jHh5BGR10a"><path d="M0 0h3662v2566H0z" fill="#fff"/><path d="M1244.2 597.22c-37.67 0-68.2-27.46-68.2-61.34 0-27.1 18.47-49.95 47.13-58.33-1.66-79.67 112-95 157.47-64.33 22.73-46 136.4-30.67 136.4 15.33 68.2-15.33 136.4 46 90.93 122.67 45.47 61.33 0 138-90.93 107.33-22.73 39.87-113.67 39.87-136.4 0-45.47 30.67-136.4 15.33-136.4-61.33z" stroke="#000" stroke-width="2" fill="#fff"/><use xlink:href="#a" transform="matrix(1,0,0,1,1180.9999999999611,387.54999999999995) translate(222.5 24.88888888888889)"/><use xlink:href="#a" transform="matrix(1,0,0,1,1180.9999999999611,387.54999999999995) translate(222.5 62.22222222222223)"/><use xlink:href="#b" transform="matrix(1,0,0,1,1180.9999999999611,387.54999999999995) translate(183.65432098765433 99.55555555555556)"/><path d="M702.7 597.22c-37.67 0-68.2-27.46-68.2-61.34 0-27.1 18.47-49.95 47.13-58.33-1.66-79.67 112-95 157.47-64.33 22.73-46 136.4-30.67 136.4 15.33 68.2-15.33 136.4 46 90.93 122.67 45.47 61.33 0 138-90.93 107.33-22.73 39.87-113.67 39.87-136.4 0-45.47 30.67-136.4 15.33-136.4-61.33z" stroke="#000" stroke-width="2" fill="#fff"/><use xlink:href="#a" transform="matrix(1,0,0,1,639.4999999999998,387.55000000000007) translate(222.5 24.88888888888889)"/><use xlink:href="#a" transform="matrix(1,0,0,1,639.4999999999998,387.55000000000007) translate(222.5 62.22222222222223)"/><use xlink:href="#c" transform="matrix(1,0,0,1,639.4999999999998,387.55000000000007) translate(165.50617283950618 99.55555555555556)"/><path d="M1292.3 529a5 5 0 0 1 5-5h103.9a5 5 0 0 1 5 5v56.67a5 5 0 0 1-5 5h-103.9a5 5 0 0 1-5-5z" stroke="#000" stroke-width="2" fill="#edf5ff"/><use xlink:href="#d" transform="matrix(1,0,0,1,1304.2937409303916,535.9999999999998) translate(14.049999999999997 25.1)"/><use xlink:href="#e" transform="matrix(1,0,0,1,1304.2937409303916,535.9999999999998) translate(63.95 25.1)"/><path d="M739.74 537a5 5 0 0 1 5-5h103.9a5 5 0 0 1 5 5v56.67a5 5 0 0 1-5 5h-103.9a5 5 0 0 1-5-5z" stroke="#000" stroke-width="2" fill="#fcfcca"/><use xlink:href="#f" transform="matrix(1,0,0,1,751.7367361215921,544) translate(12.024999999999999 25.1)"/><path d="M904.38 537a5 5 0 0 1 5-5h103.9a5 5 0 0 1 5 5v56.67a5 5 0 0 1-5 5h-103.9a5 5 0 0 1-5-5z" stroke="#000" stroke-width="2" fill="#fcfcca"/><use xlink:href="#g" transform="matrix(1,0,0,1,916.3844675960926,544) translate(-4.950000000000003 14.4)"/><use xlink:href="#h" transform="matrix(1,0,0,1,916.3844675960926,544) translate(19.025 36)"/><path d="M1450.38 529a5 5 0 0 1 5-5h103.9a5 5 0 0 1 5 5v56.67a5 5 0 0 1-5 5h-103.9a5 5 0 0 1-5-5z" stroke="#000" stroke-width="2" fill="#edf5ff"/><use xlink:href="#d" transform="matrix(1,0,0,1,1462.384467596093,535.9999999999998) translate(14.049999999999997 25.1)"/><use xlink:href="#i" transform="matrix(1,0,0,1,1462.384467596093,535.9999999999998) translate(63.95 25.1)"/><path d="M797.66 634.63l.05.67.16.6.24.6.33.53.4.48.5.42.53.33.58.24.62.14.66.05h328.5v1.94H801.65l-.9-.07-.9-.22-.88-.36-.8-.5-.7-.6-.62-.72-.5-.8-.35-.87-.22-.9-.07-.9v-34.03h1.96zm552.56.08l-.07.9-.22.9-.36.88-.5.8-.6.7-.7.62-.8.5-.88.35-.92.22-.9.07h-191.84v-1.95h191.76l.67-.06.62-.15.57-.25.54-.33.5-.4.4-.5.33-.53.24-.6.14-.6.07-.67v-24.46h1.95z" stroke="#e81313" stroke-width=".05" fill="#e81313"/><path d="M797.66 600.7h-1.95v-1.03h1.96z" fill="#e81313"/><path stroke="#e81313" stroke-width=".05" fill="#e81313"/><path d="M1353.88 609.17h-9.27l4.64-14.27z" fill="#e81313"/><path d="M1355.22 610.14h-11.95l5.97-18.4zm-9.27-1.95h6.6l-3.3-10.14z" stroke="#e81313" stroke-width=".05" fill="#e81313"/><use xlink:href="#j" transform="matrix(1,0,0,1,1130.2222222222222,615.6666170000002) translate(0 32)"/><path d="M1256.12 975.88c-37.67 0-68.2-27.46-68.2-61.33 0-27.1 18.46-49.96 47.12-58.33-1.66-79.67 112-95 157.48-64.34 22.73-46 136.4-30.66 136.4 15.34 68.2-15.34 136.4 46 90.93 122.66 45.47 61.34 0 138-90.93 107.34-22.74 39.86-113.67 39.86-136.4 0-45.47 30.66-136.4 15.33-136.4-61.34z" stroke="#000" stroke-width="2" fill="#fff"/><use xlink:href="#a" transform="matrix(1,0,0,1,1192.9166666666474,766.2166666666667) translate(222.5 24.88888888888889)"/><use xlink:href="#a" transform="matrix(1,0,0,1,1192.9166666666474,766.2166666666667) translate(222.5 62.22222222222223)"/><use xlink:href="#b" transform="matrix(1,0,0,1,1192.9166666666474,766.2166666666667) translate(183.65432098765433 99.55555555555556)"/><path d="M714.62 975.88c-37.67 0-68.2-27.46-68.2-61.33 0-27.1 18.46-49.96 47.12-58.33-1.66-79.67 112-95 157.48-64.34 22.73-46 136.4-30.66 136.4 15.34 68.2-15.34 136.4 46 90.93 122.66 45.47 61.34 0 138-90.93 107.34-22.74 39.86-113.67 39.86-136.4 0-45.47 30.66-136.4 15.33-136.4-61.34z" stroke="#000" stroke-width="2" fill="#fff"/><use xlink:href="#a" transform="matrix(1,0,0,1,651.4166666666861,766.2166666666668) translate(222.5 24.88888888888889)"/><use xlink:href="#a" transform="matrix(1,0,0,1,651.4166666666861,766.2166666666668) translate(222.5 62.22222222222223)"/><use xlink:href="#c" transform="matrix(1,0,0,1,651.4166666666861,766.2166666666668) translate(165.50617283950618 99.55555555555556)"/><path d="M751.65 915.67a5 5 0 0 1 5-5h103.9a5 5 0 0 1 5 5v56.66a5 5 0 0 1-5 5h-103.9a5 5 0 0 1-5-5z" stroke="#000" stroke-width="2" fill="#fcfcca"/><use xlink:href="#f" transform="matrix(1,0,0,1,763.6534027882784,922.6666666666666) translate(12.024999999999999 25.1)"/><path d="M916.3 915.67a5 5 0 0 1 5-5h103.9a5 5 0 0 1 5 5v56.66a5 5 0 0 1-5 5H921.3a5 5 0 0 1-5-5z" stroke="#000" stroke-width="2" fill="#fcfcca"/><use xlink:href="#g" transform="matrix(1,0,0,1,928.3011342627788,922.6666666666666) translate(-4.950000000000003 14.4)"/><use xlink:href="#h" transform="matrix(1,0,0,1,928.3011342627788,922.6666666666666) translate(19.025 36)"/><path d="M809.58 1013.3l.05.66.15.62.24.58.33.54.4.48.5.4.53.34.58.24.6.15.68.06h309.86v1.95H813.56l-.9-.06-.9-.22-.87-.36-.8-.5-.73-.6-.6-.7-.5-.8-.35-.88-.22-.9-.07-.9v-34.05h1.95zm528.5.07l-.06.9-.22.9-.36.88-.5.8-.6.7-.7.62-.8.5-.88.35-.9.22-.9.07H1145.7v-1.94h186.36l.66-.05.62-.14.58-.24.54-.33.48-.42.4-.48.34-.54.24-.58.15-.62.04-.67v-17.46h1.95z" stroke="#e81313" stroke-width=".05" fill="#e81313"/><path d="M809.58 979.36h-1.95v-1.03h1.95z" fill="#e81313"/><path stroke="#e81313" stroke-width=".05" fill="#e81313"/><path d="M1341.75 994.84h-9.27l4.64-14.27z" fill="#e81313"/><path d="M1343.1 995.8h-11.96l5.98-18.4zm-9.28-1.94h6.6l-3.3-10.13z" stroke="#e81313" stroke-width=".05" fill="#e81313"/><g><use xlink:href="#j" transform="matrix(1,0,0,1,1123.4977672690047,994.333283666667) translate(0 32)"/></g><path d="M1321 924.32a5 5 0 0 1 5-5h22.23a5 5 0 0 1 5 5v48a5 5 0 0 1-5 5H1326a5 5 0 0 1-5-5z" fill="none"/><g><use xlink:href="#j" transform="matrix(1,0,0,1,1326,924.3233333333332) translate(0 32.5)"/></g><path d="M637.48 341.33a5 5 0 0 1 5-5h355.54a5 5 0 0 1 5 5v37.35a5 5 0 0 1-5 5H642.48a5 5 0 0 1-5-5z" fill="none"/><g><use xlink:href="#k" transform="matrix(1,0,0,1,642.4783333333334,341.3333333333333) translate(0 25.22222222222222)"/><use xlink:href="#l" transform="matrix(1,0,0,1,642.4783333333334,341.3333333333333) translate(86.33333333333333 25.22222222222222)"/><use xlink:href="#m" transform="matrix(1,0,0,1,642.4783333333334,341.3333333333333) translate(179.49382716049382 25.22222222222222)"/><use xlink:href="#n" transform="matrix(1,0,0,1,642.4783333333334,341.3333333333333) translate(265.74074074074076 25.22222222222222)"/></g><path d="M637.48 721.53a5 5 0 0 1 5-5h390.1a5 5 0 0 1 5 5v37.34a5 5 0 0 1-5 5H642.5a5 5 0 0 1-5-5z" fill="none"/><g><use xlink:href="#k" transform="matrix(1,0,0,1,642.4783333333334,721.5283333333334) translate(0 25.22222222222222)"/><use xlink:href="#l" transform="matrix(1,0,0,1,642.4783333333334,721.5283333333334) translate(86.33333333333333 25.22222222222222)"/><use xlink:href="#m" transform="matrix(1,0,0,1,642.4783333333334,721.5283333333334) translate(179.49382716049382 25.22222222222222)"/><use xlink:href="#o" transform="matrix(1,0,0,1,642.4783333333334,721.5283333333334) translate(265.74074074074076 25.22222222222222)"/></g><defs><path d="M140-251c81 0 123 46 123 126C263-46 219 4 140 4 59 4 17-45 17-125s42-126 123-126zm0 227c63 0 89-41 89-101s-29-99-89-99c-61 0-89 39-89 99S79-25 140-24" id="p"/><path d="M59-47c-2 24 18 29 38 22v24C64 9 27 4 27-40v-127H5v-23h24l9-43h21v43h35v23H59v120" id="q"/><path d="M106-169C34-169 62-67 57 0H25v-261h32l-1 103c12-21 28-36 61-36 89 0 53 116 60 194h-32v-121c2-32-8-49-39-48" id="r"/><path d="M100-194c63 0 86 42 84 106H49c0 40 14 67 53 68 26 1 43-12 49-29l28 8c-11 28-37 45-77 45C44 4 14-33 15-96c1-61 26-98 85-98zm52 81c6-60-76-77-97-28-3 7-6 17-6 28h103" id="s"/><path d="M114-163C36-179 61-72 57 0H25l-1-190h30c1 12-1 29 2 39 6-27 23-49 58-41v29" id="t"/><g id="b"><use transform="matrix(0.08641975308641975,0,0,0.08641975308641975,0,0)" xlink:href="#p"/><use transform="matrix(0.08641975308641975,0,0,0.08641975308641975,24.197530864197528,0)" xlink:href="#q"/><use transform="matrix(0.08641975308641975,0,0,0.08641975308641975,32.839506172839506,0)" xlink:href="#r"/><use transform="matrix(0.08641975308641975,0,0,0.08641975308641975,50.123456790123456,0)" xlink:href="#s"/><use transform="matrix(0.08641975308641975,0,0,0.08641975308641975,67.4074074074074,0)" xlink:href="#t"/></g><path d="M205 0l-28-72H64L36 0H1l101-248h38L239 0h-34zm-38-99l-47-123c-12 45-31 82-46 123h93" id="u"/><path d="M85-194c31 0 48 13 60 33l-1-100h32l1 261h-30c-2-10 0-23-3-31C134-8 116 4 85 4 32 4 16-35 15-94c0-66 23-100 70-100zm9 24c-40 0-46 34-46 75 0 40 6 74 45 74 42 0 51-32 51-76 0-42-9-74-50-73" id="v"/><path d="M135-143c-3-34-86-38-87 0 15 53 115 12 119 90S17 21 10-45l28-5c4 36 97 45 98 0-10-56-113-15-118-90-4-57 82-63 122-42 12 7 21 19 24 35" id="w"/><g id="c"><use transform="matrix(0.08641975308641975,0,0,0.08641975308641975,0,0)" xlink:href="#u"/><use transform="matrix(0.08641975308641975,0,0,0.08641975308641975,20.74074074074074,0)" xlink:href="#v"/><use transform="matrix(0.08641975308641975,0,0,0.08641975308641975,38.02469135802469,0)" xlink:href="#v"/><use transform="matrix(0.08641975308641975,0,0,0.08641975308641975,55.30864197530864,0)" xlink:href="#t"/><use transform="matrix(0.08641975308641975,0,0,0.08641975308641975,65.59259259259258,0)" xlink:href="#s"/><use transform="matrix(0.08641975308641975,0,0,0.08641975308641975,82.87654320987653,0)" xlink:href="#w"/><use transform="matrix(0.08641975308641975,0,0,0.08641975308641975,98.43209876543209,0)" xlink:href="#w"/></g><path d="M212-179c-10-28-35-45-73-45-59 0-87 40-87 99 0 60 29 101 89 101 43 0 62-24 78-52l27 14C228-24 195 4 139 4 59 4 22-46 18-125c-6-104 99-153 187-111 19 9 31 26 39 46" id="x"/><path d="M24 0v-261h32V0H24" id="y"/><path d="M141-36C126-15 110 5 73 4 37 3 15-17 15-53c-1-64 63-63 125-63 3-35-9-54-41-54-24 1-41 7-42 31l-33-3c5-37 33-52 76-52 45 0 72 20 72 64v82c-1 20 7 32 28 27v20c-31 9-61-2-59-35zM48-53c0 20 12 33 32 33 41-3 63-29 60-74-43 2-92-5-92 41" id="z"/><g id="d"><use transform="matrix(0.05,0,0,0.05,0,0)" xlink:href="#x"/><use transform="matrix(0.05,0,0,0.05,12.950000000000001,0)" xlink:href="#y"/><use transform="matrix(0.05,0,0,0.05,16.900000000000002,0)" xlink:href="#z"/><use transform="matrix(0.05,0,0,0.05,26.900000000000002,0)" xlink:href="#w"/><use transform="matrix(0.05,0,0,0.05,35.900000000000006,0)" xlink:href="#w"/></g><path d="M195 0l-74-108L45 0H8l94-129-87-119h37l69 98 67-98h37l-84 118L233 0h-38" id="A"/><use transform="matrix(0.05,0,0,0.05,0,0)" xlink:href="#A" id="e"/><g id="f"><use transform="matrix(0.05,0,0,0.05,0,0)" xlink:href="#u"/><use transform="matrix(0.05,0,0,0.05,12,0)" xlink:href="#v"/><use transform="matrix(0.05,0,0,0.05,22,0)" xlink:href="#v"/><use transform="matrix(0.05,0,0,0.05,32,0)" xlink:href="#t"/><use transform="matrix(0.05,0,0,0.05,37.95,0)" xlink:href="#s"/><use transform="matrix(0.05,0,0,0.05,47.95,0)" xlink:href="#w"/><use transform="matrix(0.05,0,0,0.05,56.95,0)" xlink:href="#w"/></g><path d="M115-194c53 0 69 39 70 98 0 66-23 100-70 100C84 3 66-7 56-30L54 0H23l1-261h32v101c10-23 28-34 59-34zm-8 174c40 0 45-34 45-75 0-40-5-75-45-74-42 0-51 32-51 76 0 43 10 73 51 73" id="B"/><g id="g"><use transform="matrix(0.05,0,0,0.05,0,0)" xlink:href="#u"/><use transform="matrix(0.05,0,0,0.05,12,0)" xlink:href="#v"/><use transform="matrix(0.05,0,0,0.05,22,0)" xlink:href="#v"/><use transform="matrix(0.05,0,0,0.05,32,0)" xlink:href="#t"/><use transform="matrix(0.05,0,0,0.05,37.95,0)" xlink:href="#s"/><use transform="matrix(0.05,0,0,0.05,47.95,0)" xlink:href="#w"/><use transform="matrix(0.05,0,0,0.05,56.95,0)" xlink:href="#w"/><use transform="matrix(0.05,0,0,0.05,65.95,0)" xlink:href="#z"/><use transform="matrix(0.05,0,0,0.05,75.95,0)" xlink:href="#B"/><use transform="matrix(0.05,0,0,0.05,85.95,0)" xlink:href="#y"/><use transform="matrix(0.05,0,0,0.05,89.9,0)" xlink:href="#s"/></g><path d="M24-231v-30h32v30H24zM-9 49c24 4 33-6 33-30v-209h32V24c2 40-23 58-65 49V49" id="C"/><path d="M96-169c-40 0-48 33-48 73s9 75 48 75c24 0 41-14 43-38l32 2c-6 37-31 61-74 61-59 0-76-41-82-99-10-93 101-131 147-64 4 7 5 14 7 22l-32 3c-4-21-16-35-41-35" id="D"/><g id="h"><use transform="matrix(0.05,0,0,0.05,0,0)" xlink:href="#p"/><use transform="matrix(0.05,0,0,0.05,14,0)" xlink:href="#B"/><use transform="matrix(0.05,0,0,0.05,24,0)" xlink:href="#C"/><use transform="matrix(0.05,0,0,0.05,27.950000000000003,0)" xlink:href="#s"/><use transform="matrix(0.05,0,0,0.05,37.95,0)" xlink:href="#D"/><use transform="matrix(0.05,0,0,0.05,46.95,0)" xlink:href="#q"/></g><path d="M137-103V0h-34v-103L8-248h37l75 118 75-118h37" id="E"/><use transform="matrix(0.05,0,0,0.05,0,0)" xlink:href="#E" id="i"/><path fill="#e81313" d="M103-251c84 0 111 97 45 133-19 10-37 24-39 52H78c0-63 77-55 77-114 0-30-21-42-52-43-32 0-53 17-56 46l-32-2c7-45 34-72 88-72zM77 0v-35h34V0H77" id="F"/><use transform="matrix(0.1111111111111111,0,0,0.1111111111111111,0,0)" xlink:href="#F" id="j"/><g id="k"><use transform="matrix(0.08641975308641975,0,0,0.08641975308641975,0,0)" xlink:href="#p"/><use transform="matrix(0.08641975308641975,0,0,0.08641975308641975,24.197530864197528,0)" xlink:href="#q"/><use transform="matrix(0.08641975308641975,0,0,0.08641975308641975,32.839506172839506,0)" xlink:href="#r"/><use transform="matrix(0.08641975308641975,0,0,0.08641975308641975,50.123456790123456,0)" xlink:href="#s"/><use transform="matrix(0.08641975308641975,0,0,0.08641975308641975,67.4074074074074,0)" xlink:href="#t"/></g><path d="M210-169c-67 3-38 105-44 169h-31v-121c0-29-5-50-35-48C34-165 62-65 56 0H25l-1-190h30c1 10-1 24 2 32 10-44 99-50 107 0 11-21 27-35 58-36 85-2 47 119 55 194h-31v-121c0-29-5-49-35-48" id="G"/><path d="M100-194c62-1 85 37 85 99 1 63-27 99-86 99S16-35 15-95c0-66 28-99 85-99zM99-20c44 1 53-31 53-75 0-43-8-75-51-75s-53 32-53 75 10 74 51 75" id="H"/><g id="l"><use transform="matrix(0.08641975308641975,0,0,0.08641975308641975,0,0)" xlink:href="#G"/><use transform="matrix(0.08641975308641975,0,0,0.08641975308641975,25.839506172839506,0)" xlink:href="#H"/><use transform="matrix(0.08641975308641975,0,0,0.08641975308641975,43.123456790123456,0)" xlink:href="#v"/><use transform="matrix(0.08641975308641975,0,0,0.08641975308641975,60.407407407407405,0)" xlink:href="#s"/><use transform="matrix(0.08641975308641975,0,0,0.08641975308641975,77.69135802469135,0)" xlink:href="#y"/></g><g id="m"><use transform="matrix(0.08641975308641975,0,0,0.08641975308641975,0,0)" xlink:href="#x"/><use transform="matrix(0.08641975308641975,0,0,0.08641975308641975,22.382716049382715,0)" xlink:href="#y"/><use transform="matrix(0.08641975308641975,0,0,0.08641975308641975,29.209876543209877,0)" xlink:href="#z"/><use transform="matrix(0.08641975308641975,0,0,0.08641975308641975,46.49382716049382,0)" xlink:href="#w"/><use transform="matrix(0.08641975308641975,0,0,0.08641975308641975,62.04938271604938,0)" xlink:href="#w"/></g><path d="M143 0L79-87 56-68V0H24v-261h32v163l83-92h37l-77 82L181 0h-38" id="I"/><path d="M117-194c89-4 53 116 60 194h-32v-121c0-31-8-49-39-48C34-167 62-67 57 0H25l-1-190h30c1 10-1 24 2 32 11-22 29-35 61-36" id="J"/><path d="M206 0h-36l-40-164L89 0H53L-1-190h32L70-26l43-164h34l41 164 42-164h31" id="K"/><g id="n"><use transform="matrix(0.08641975308641975,0,0,0.08641975308641975,0,0)" xlink:href="#I"/><use transform="matrix(0.08641975308641975,0,0,0.08641975308641975,15.555555555555555,0)" xlink:href="#J"/><use transform="matrix(0.08641975308641975,0,0,0.08641975308641975,32.839506172839506,0)" xlink:href="#H"/><use transform="matrix(0.08641975308641975,0,0,0.08641975308641975,50.123456790123456,0)" xlink:href="#K"/><use transform="matrix(0.08641975308641975,0,0,0.08641975308641975,72.50617283950618,0)" xlink:href="#J"/></g><path d="M84 4C-5 8 30-112 23-190h32v120c0 31 7 50 39 49 72-2 45-101 50-169h31l1 190h-30c-1-10 1-25-2-33-11 22-28 36-60 37" id="L"/><g id="o"><use transform="matrix(0.08641975308641975,0,0,0.08641975308641975,0,0)" xlink:href="#L"/><use transform="matrix(0.08641975308641975,0,0,0.08641975308641975,17.28395061728395,0)" xlink:href="#J"/><use transform="matrix(0.08641975308641975,0,0,0.08641975308641975,34.5679012345679,0)" xlink:href="#I"/><use transform="matrix(0.08641975308641975,0,0,0.08641975308641975,50.123456790123456,0)" xlink:href="#J"/><use transform="matrix(0.08641975308641975,0,0,0.08641975308641975,67.4074074074074,0)" xlink:href="#H"/><use transform="matrix(0.08641975308641975,0,0,0.08641975308641975,84.69135802469135,0)" xlink:href="#K"/><use transform="matrix(0.08641975308641975,0,0,0.08641975308641975,107.07407407407406,0)" xlink:href="#J"/></g></defs></g></svg>