<svg xmlns="http://www.w3.org/2000/svg" xmlns:xlink="http://www.w3.org/1999/xlink" xmlns:lucid="lucid" width="1030.5" height="1310.9"><g transform="translate(-633.4999999999998 -47.88333333333344)" lucid:page-tab-id="~TjH67zmVkuo"><path d="M0 0h3662v2566H0z" fill="#fff"/><path d="M1277.53 728.88c-37.66 0-68.2-27.46-68.2-61.33 0-27.1 18.47-49.96 47.13-58.33-1.66-79.67 112-95 157.47-64.34 22.74-46 136.4-30.66 136.4 15.34 68.2-15.34 136.4 46 90.94 122.66 45.46 61.34 0 138-90.94 107.34-22.73 39.86-113.66 39.86-136.4 0-45.46 30.66-136.4 15.33-136.4-61.34z" stroke="#000" stroke-width="2" fill="#fff"/><use xlink:href="#a" transform="matrix(1,0,0,1,1214.3333333332944,519.2166666666667) translate(222.5 24.88888888888889)"/><use xlink:href="#a" transform="matrix(1,0,0,1,1214.3333333332944,519.2166666666667) translate(222.5 62.22222222222223)"/><use xlink:href="#b" transform="matrix(1,0,0,1,1214.3333333332944,519.2166666666667) translate(159.5 99.55555555555556)"/><path d="M702.7 597.22c-37.67 0-68.2-27.46-68.2-61.34 0-27.1 18.47-49.95 47.13-58.33-1.66-79.67 112-95 157.47-64.33 22.73-46 136.4-30.67 136.4 15.33 68.2-15.33 136.4 46 90.93 122.67 45.47 61.33 0 138-90.93 107.33-22.73 39.87-113.67 39.87-136.4 0-45.47 30.67-136.4 15.33-136.4-61.33z" stroke="#000" stroke-width="2" fill="#fff"/><use xlink:href="#a" transform="matrix(1,0,0,1,639.4999999999998,387.55000000000007) translate(222.5 24.88888888888889)"/><use xlink:href="#a" transform="matrix(1,0,0,1,639.4999999999998,387.55000000000007) translate(222.5 62.22222222222223)"/><use xlink:href="#c" transform="matrix(1,0,0,1,639.4999999999998,387.55000000000007) translate(165.50617283950618 99.55555555555556)"/><path d="M702.7 931.88c-37.67 0-68.2-27.46-68.2-61.33 0-27.1 18.47-49.96 47.13-58.33-1.66-79.67 112-95 157.47-64.34 22.73-46 136.4-30.66 136.4 15.34 68.2-15.34 136.4 46 90.93 122.66 45.47 61.34 0 138-90.93 107.34-22.73 39.86-113.67 39.86-136.4 0-45.47 30.66-136.4 15.33-136.4-61.34z" stroke="#000" stroke-width="2" fill="#fff"/><use xlink:href="#a" transform="matrix(1,0,0,1,639.4999999999998,722.2166666666667) translate(222.5 24.88888888888889)"/><use xlink:href="#a" transform="matrix(1,0,0,1,639.4999999999998,722.2166666666667) translate(222.5 62.22222222222223)"/><use xlink:href="#d" transform="matrix(1,0,0,1,639.4999999999998,722.2166666666667) translate(76.66666666666669 99.55555555555556)"/><use xlink:href="#e" transform="matrix(1,0,0,1,639.4999999999998,722.2166666666667) translate(269.98765432098764 99.55555555555556)"/><path d="M702.7 1266.55c-37.67 0-68.2-27.46-68.2-61.33 0-27.1 18.47-49.96 47.13-58.34-1.66-79.66 112-95 157.47-64.33 22.73-46 136.4-30.67 136.4 15.33 68.2-15.33 136.4 46 90.93 122.67 45.47 61.33 0 138-90.93 107.33-22.73 39.87-113.67 39.87-136.4 0-45.47 30.67-136.4 15.34-136.4-61.33z" stroke="#000" stroke-width="2" fill="#fff"/><use xlink:href="#a" transform="matrix(1,0,0,1,639.4999999999998,1056.8833333333334) translate(222.5 24.88888888888889)"/><use xlink:href="#a" transform="matrix(1,0,0,1,639.4999999999998,1056.8833333333334) translate(222.5 62.22222222222223)"/><use xlink:href="#f" transform="matrix(1,0,0,1,639.4999999999998,1056.8833333333334) translate(177.60493827160494 99.55555555555556)"/><path d="M1320.63 660.67a5 5 0 0 1 5-5h103.9a5 5 0 0 1 5 5v56.66a5 5 0 0 1-5 5h-103.9a5 5 0 0 1-5-5z" stroke="#000" stroke-width="2" fill="#edf5ff"/><use xlink:href="#g" transform="matrix(1,0,0,1,1332.6270742637248,667.6666666666665) translate(19.549999999999997 25.1)"/><path d="M739.74 1205a5 5 0 0 1 5-5h103.9a5 5 0 0 1 5 5v56.67a5 5 0 0 1-5 5h-103.9a5 5 0 0 1-5-5z" stroke="#000" stroke-width="2" fill="#fcfcca"/><use xlink:href="#h" transform="matrix(1,0,0,1,751.7367361215921,1212.0000000000002) translate(23.525 14.4)"/><use xlink:href="#i" transform="matrix(1,0,0,1,751.7367361215921,1212.0000000000002) translate(21.049999999999997 36)"/><path d="M739.74 537a5 5 0 0 1 5-5h103.9a5 5 0 0 1 5 5v56.67a5 5 0 0 1-5 5h-103.9a5 5 0 0 1-5-5z" stroke="#000" stroke-width="2" fill="#fcfcca"/><use xlink:href="#j" transform="matrix(1,0,0,1,751.7367361215921,544) translate(12.024999999999999 25.1)"/><path d="M739.74 870.33a5 5 0 0 1 5-5h103.9a5 5 0 0 1 5 5V927a5 5 0 0 1-5 5h-103.9a5 5 0 0 1-5-5z" stroke="#000" stroke-width="2" fill="#fcfcca"/><use xlink:href="#k" transform="matrix(1,0,0,1,751.7367361215921,877.3333333333335) translate(-8.425000000000004 14.4)"/><use xlink:href="#i" transform="matrix(1,0,0,1,751.7367361215921,877.3333333333335) translate(21.049999999999997 36)"/><path d="M904.38 537a5 5 0 0 1 5-5h103.9a5 5 0 0 1 5 5v56.67a5 5 0 0 1-5 5h-103.9a5 5 0 0 1-5-5z" stroke="#000" stroke-width="2" fill="#fcfcca"/><use xlink:href="#l" transform="matrix(1,0,0,1,916.3844675960926,544) translate(-4.950000000000003 14.4)"/><use xlink:href="#m" transform="matrix(1,0,0,1,916.3844675960926,544) translate(19.025 36)"/><path d="M904.38 870.33a5 5 0 0 1 5-5h103.9a5 5 0 0 1 5 5V927a5 5 0 0 1-5 5h-103.9a5 5 0 0 1-5-5z" stroke="#000" stroke-width="2" fill="#fcfcca"/><use xlink:href="#k" transform="matrix(1,0,0,1,916.3844675960926,877.3333333333335) translate(-8.425000000000004 14.4)"/><use xlink:href="#m" transform="matrix(1,0,0,1,916.3844675960926,877.3333333333335) translate(19.025 36)"/><path d="M904.38 1205a5 5 0 0 1 5-5h103.9a5 5 0 0 1 5 5v56.67a5 5 0 0 1-5 5h-103.9a5 5 0 0 1-5-5z" stroke="#000" stroke-width="2" fill="#fcfcca"/><use xlink:href="#h" transform="matrix(1,0,0,1,916.3844675960926,1212.0000000000002) translate(23.525 14.4)"/><use xlink:href="#m" transform="matrix(1,0,0,1,916.3844675960926,1212.0000000000002) translate(19.025 36)"/><path d="M1488.72 660.67a5 5 0 0 1 5-5h103.9a5 5 0 0 1 5 5v56.66a5 5 0 0 1-5 5h-103.9a5 5 0 0 1-5-5z" stroke="#000" stroke-width="2" fill="#edf5ff"/><use xlink:href="#n" transform="matrix(1,0,0,1,1500.7178009294262,667.6666666666665) translate(11.049999999999997 25.1)"/><path d="M702.7 262.55c-37.67 0-68.2-27.46-68.2-61.33 0-27.1 18.47-49.96 47.13-58.34-1.66-79.66 112-95 157.47-64.33 22.73-46 136.4-30.67 136.4 15.33 68.2-15.33 136.4 46 90.93 122.67 45.47 61.33 0 138-90.93 107.33-22.73 39.87-113.67 39.87-136.4 0-45.47 30.67-136.4 15.34-136.4-61.33z" stroke="#000" stroke-width="2" fill="#fff"/><use xlink:href="#a" transform="matrix(1,0,0,1,639.4999999999998,52.88333333333344) translate(222.5 24.88888888888889)"/><use xlink:href="#a" transform="matrix(1,0,0,1,639.4999999999998,52.88333333333344) translate(222.5 62.22222222222223)"/><use xlink:href="#o" transform="matrix(1,0,0,1,639.4999999999998,52.88333333333344) translate(100.82098765432099 99.55555555555556)"/><use xlink:href="#p" transform="matrix(1,0,0,1,639.4999999999998,52.88333333333344) translate(261.3888888888889 99.55555555555556)"/><path d="M739.74 201a5 5 0 0 1 5-5h103.9a5 5 0 0 1 5 5v56.67a5 5 0 0 1-5 5h-103.9a5 5 0 0 1-5-5z" stroke="#000" stroke-width="2" fill="#fcfcca"/><use xlink:href="#q" transform="matrix(1,0,0,1,751.7367361215921,208.00000000000023) translate(1.0499999999999972 14.4)"/><use xlink:href="#i" transform="matrix(1,0,0,1,751.7367361215921,208.00000000000023) translate(21.049999999999997 36)"/><path d="M904.38 201a5 5 0 0 1 5-5h103.9a5 5 0 0 1 5 5v56.67a5 5 0 0 1-5 5h-103.9a5 5 0 0 1-5-5z" stroke="#000" stroke-width="2" fill="#fcfcca"/><use xlink:href="#r" transform="matrix(1,0,0,1,916.3844675960926,208.00000000000023) translate(6.549999999999997 25.1)"/><path d="M737.74 898.67h-34a5 5 0 0 1-5-5v-585a5 5 0 0 1 5-5h87.95a5 5 0 0 0 5-5v-10.35" stroke="#54c45e" stroke-width="2" fill="none"/><path d="M738.74 899.64h-1.03v-1.95h1.04z" stroke="#54c45e" stroke-width=".05" fill="#54c45e"/><path d="M796.7 265.67l12.5 21.65h-25z" stroke="#54c45e" stroke-width="2" fill="#fff"/><path d="M1020.28 898.67h34a5 5 0 0 0 5-5v-585a5 5 0 0 0-5-5h-87.95a5 5 0 0 1-5-5v-10.35" stroke="#54c45e" stroke-width="2" fill="none"/><path d="M1020.3 899.64h-1.02v-1.95h1.03z" stroke="#54c45e" stroke-width=".05" fill="#54c45e"/><path d="M961.33 265.67l12.5 21.65h-25z" stroke="#54c45e" stroke-width="2" fill="#fff"/><path d="M737.74 1233.33h-34a5 5 0 0 1-5-5V308.67a5 5 0 0 1 5-5h87.95a5 5 0 0 0 5-5v-10.35" stroke="#54c45e" stroke-width="2" fill="none"/><path d="M738.74 1234.3h-1.03v-1.94h1.04z" stroke="#54c45e" stroke-width=".05" fill="#54c45e"/><path d="M796.7 265.67l12.5 21.65h-25z" stroke="#54c45e" stroke-width="2" fill="#fff"/><path d="M1020.28 1233.33h34a5 5 0 0 0 5-5V308.67a5 5 0 0 0-5-5h-87.95a5 5 0 0 1-5-5v-10.35" stroke="#54c45e" stroke-width="2" fill="none"/><path d="M1020.3 1234.3h-1.02v-1.94h1.03z" stroke="#54c45e" stroke-width=".05" fill="#54c45e"/><path d="M961.33 265.67l12.5 21.65h-25z" stroke="#54c45e" stroke-width="2" fill="#fff"/><path d="M1020.28 565.33h34a5 5 0 0 0 5-5V308.67a5 5 0 0 0-5-5h-87.95a5 5 0 0 1-5-5v-10.35" stroke="#54c45e" stroke-width="2" fill="none"/><path d="M1020.3 566.3h-1.02v-1.94h1.03z" stroke="#54c45e" stroke-width=".05" fill="#54c45e"/><path d="M961.33 265.67l12.5 21.65h-25z" stroke="#54c45e" stroke-width="2" fill="#fff"/><path d="M737.74 565.33h-34a5 5 0 0 1-5-5V308.67a5 5 0 0 1 5-5h87.95a5 5 0 0 0 5-5v-10.35" stroke="#54c45e" stroke-width="2" fill="none"/><path d="M738.74 566.3h-1.03v-1.94h1.04z" stroke="#54c45e" stroke-width=".05" fill="#54c45e"/><path d="M796.7 265.67l12.5 21.65h-25z" stroke="#54c45e" stroke-width="2" fill="#fff"/><path d="M1277.53 385c-37.66 0-68.2-27.46-68.2-61.33 0-27.1 18.47-49.96 47.13-58.34-1.66-79.66 112-95 157.47-64.33 22.74-46 136.4-30.67 136.4 15.33 68.2-15.33 136.4 46 90.94 122.67 45.46 61.33 0 138-90.94 107.33-22.73 39.87-113.66 39.87-136.4 0-45.46 30.67-136.4 15.34-136.4-61.33z" stroke="#000" stroke-width="2" fill="#fff"/><use xlink:href="#a" transform="matrix(1,0,0,1,1214.3333333332944,175.3333333333333) translate(222.5 24.88888888888889)"/><use xlink:href="#a" transform="matrix(1,0,0,1,1214.3333333332944,175.3333333333333) translate(222.5 62.22222222222223)"/><use xlink:href="#s" transform="matrix(1,0,0,1,1214.3333333332944,175.3333333333333) translate(131.24074074074076 99.55555555555556)"/><path d="M1320.63 316.78a5 5 0 0 1 5-5h103.9a5 5 0 0 1 5 5v56.67a5 5 0 0 1-5 5h-103.9a5 5 0 0 1-5-5z" stroke="#000" stroke-width="2" fill="#fff"/><use xlink:href="#t" transform="matrix(1,0,0,1,1332.6270742637248,323.78333333333325) translate(14.049999999999997 25.1)"/><path d="M1488.72 316.78a5 5 0 0 1 5-5h103.9a5 5 0 0 1 5 5v56.67a5 5 0 0 1-5 5h-103.9a5 5 0 0 1-5-5z" stroke="#000" stroke-width="2" fill="#fff"/><use xlink:href="#u" transform="matrix(1,0,0,1,1500.7178009294262,323.78333333333325) translate(14.049999999999997 14.4)"/><use xlink:href="#v" transform="matrix(1,0,0,1,1500.7178009294262,323.78333333333325) translate(5.599999999999994 36)"/><path d="M1545.67 653.67V404.1" stroke="#54c45e" stroke-width="2" fill="none"/><path d="M1546.64 654.67h-1.95v-1.03h1.94z" stroke="#54c45e" stroke-width=".05" fill="#54c45e"/><path d="M1545.67 381.45l12.5 21.65h-25z" stroke="#54c45e" stroke-width="2" fill="#fff"/><path d="M1377.58 653.67V404.1" stroke="#54c45e" stroke-width="2" fill="none"/><path d="M1378.55 654.67h-1.95v-1.03h1.95z" stroke="#54c45e" stroke-width=".05" fill="#54c45e"/><path d="M1377.58 381.45l12.5 21.65h-25z" stroke="#54c45e" stroke-width="2" fill="#fff"/><path d="M1318.63 345.12h-144.18a5 5 0 0 1-5-5v-105.8a5 5 0 0 0-5-5h-120.52" stroke="#54c45e" stroke-width="2" fill="none"/><path d="M1319.63 346.1h-1.03v-1.96h1.03z" stroke="#54c45e" stroke-width=".05" fill="#54c45e"/><path d="M1021.28 229.33l21.65-12.5v25z" stroke="#54c45e" stroke-width="2" fill="#fff"/><path d="M1604.62 345.12h34a5 5 0 0 0 5-5V234a5 5 0 0 0-5-5h-579.17a.17.17 0 0 0-.17.17.17.17 0 0 1-.16.16h-15.2" stroke="#54c45e" stroke-width="2" fill="none"/><path d="M1604.64 346.1h-1.03l.02-1.96h1.02z" stroke="#54c45e" stroke-width=".05" fill="#54c45e"/><path d="M1021.28 229.33l21.65-12.5v25z" stroke="#54c45e" stroke-width="2" fill="#fff"/><path d="M1380.76 1287.53h168.44M1380.78 1287.53h-1.02" stroke="#54c45e" stroke-width="2" fill="none"/><path d="M1571.86 1287.53l-21.65 12.5v-25z" stroke="#54c45e" stroke-width="2" fill="#fff"/><path d="M1393.53 1245.05a5 5 0 0 1 5-5h140.68a5 5 0 0 1 5 5v32a5 5 0 0 1-5 5h-140.67a5 5 0 0 1-5-5z" fill="none"/><g><use xlink:href="#w" transform="matrix(1,0,0,1,1398.5303373112847,1245.0542642938785) translate(0 21.833333333333336)"/><use xlink:href="#x" transform="matrix(1,0,0,1,1398.5303373112847,1245.0542642938785) translate(50.37037037037038 21.833333333333336)"/><use xlink:href="#y" transform="matrix(1,0,0,1,1398.5303373112847,1245.0542642938785) translate(118.44444444444447 21.833333333333336)"/></g><path d="M1411.92 1154.32a5 5 0 0 1 5-5h103.9a5 5 0 0 1 5 5v56.66a5 5 0 0 1-5 5h-103.9a5 5 0 0 1-5-5z" stroke="#000" stroke-width="2" fill="#fcfcca"/><g><use xlink:href="#j" transform="matrix(1,0,0,1,1423.9198049073775,1161.3150735587467) translate(12.024999999999999 25.1)"/></g><path d="M1430.6 1103.45a5 5 0 0 1 5-5h66.53a5 5 0 0 1 5 5v32a5 5 0 0 1-5 5h-66.53a5 5 0 0 1-5-5z" fill="none"/><g><use xlink:href="#z" transform="matrix(1,0,0,1,1435.6044113853588,1103.448453852045) translate(0 21.833333333333336)"/></g><path d="M1398.73 1033.9c-16.6 0-30.05-10.73-30.05-24 0-10.6 8.14-19.53 20.77-22.8-.73-31.2 49.36-37.2 69.4-25.2 10.02-18 60.1-12 60.1 6 30.07-6 60.13 18 40.1 48 20.03 24 0 54-40.1 42-10 15.62-50.08 15.62-60.1 0-20.04 12-60.12 6-60.12-24z" stroke="#000" stroke-width="2" fill="#fff"/><g><use xlink:href="#a" transform="matrix(1,0,0,1,1373.6775642608786,954.9152359767916) translate(95.5 24.88888888888889)"/><use xlink:href="#A" transform="matrix(1,0,0,1,1373.6775642608786,954.9152359767916) translate(53.24074074074074 62.22222222222223)"/></g><path d="M961.33 1268.67v34a5 5 0 0 0 5 5h308.3a5 5 0 0 0 5-5V694a5 5 0 0 1 5-5h10.35" stroke="#54c45e" stroke-width="2" fill="none"/><path d="M962.3 1268.7h-1.94v-1.03h1.95z" stroke="#54c45e" stroke-width=".05" fill="#54c45e"/><path d="M1317.63 689l-21.65 12.5v-25z" stroke="#54c45e" stroke-width="2" fill="#fff"/><defs><path d="M212-179c-10-28-35-45-73-45-59 0-87 40-87 99 0 60 29 101 89 101 43 0 62-24 78-52l27 14C228-24 195 4 139 4 59 4 22-46 18-125c-6-104 99-153 187-111 19 9 31 26 39 46" id="B"/><path d="M141-36C126-15 110 5 73 4 37 3 15-17 15-53c-1-64 63-63 125-63 3-35-9-54-41-54-24 1-41 7-42 31l-33-3c5-37 33-52 76-52 45 0 72 20 72 64v82c-1 20 7 32 28 27v20c-31 9-61-2-59-35zM48-53c0 20 12 33 32 33 41-3 63-29 60-74-43 2-92-5-92 41" id="C"/><path d="M85-194c31 0 48 13 60 33l-1-100h32l1 261h-30c-2-10 0-23-3-31C134-8 116 4 85 4 32 4 16-35 15-94c0-66 23-100 70-100zm9 24c-40 0-46 34-46 75 0 40 6 74 45 74 42 0 51-32 51-76 0-42-9-74-50-73" id="D"/><path d="M135-143c-3-34-86-38-87 0 15 53 115 12 119 90S17 21 10-45l28-5c4 36 97 45 98 0-10-56-113-15-118-90-4-57 82-63 122-42 12 7 21 19 24 35" id="E"/><path d="M59-47c-2 24 18 29 38 22v24C64 9 27 4 27-40v-127H5v-23h24l9-43h21v43h35v23H59v120" id="F"/><path d="M114-163C36-179 61-72 57 0H25l-1-190h30c1 12-1 29 2 39 6-27 23-49 58-41v29" id="G"/><path d="M100-194c63 0 86 42 84 106H49c0 40 14 67 53 68 26 1 43-12 49-29l28 8c-11 28-37 45-77 45C44 4 14-33 15-96c1-61 26-98 85-98zm52 81c6-60-76-77-97-28-3 7-6 17-6 28h103" id="H"/><g id="b"><use transform="matrix(0.08641975308641975,0,0,0.08641975308641975,0,0)" xlink:href="#B"/><use transform="matrix(0.08641975308641975,0,0,0.08641975308641975,22.382716049382715,0)" xlink:href="#C"/><use transform="matrix(0.08641975308641975,0,0,0.08641975308641975,39.666666666666664,0)" xlink:href="#D"/><use transform="matrix(0.08641975308641975,0,0,0.08641975308641975,56.95061728395061,0)" xlink:href="#C"/><use transform="matrix(0.08641975308641975,0,0,0.08641975308641975,74.23456790123456,0)" xlink:href="#E"/><use transform="matrix(0.08641975308641975,0,0,0.08641975308641975,89.79012345679011,0)" xlink:href="#F"/><use transform="matrix(0.08641975308641975,0,0,0.08641975308641975,98.43209876543209,0)" xlink:href="#G"/><use transform="matrix(0.08641975308641975,0,0,0.08641975308641975,108.71604938271604,0)" xlink:href="#H"/></g><path d="M205 0l-28-72H64L36 0H1l101-248h38L239 0h-34zm-38-99l-47-123c-12 45-31 82-46 123h93" id="I"/><g id="c"><use transform="matrix(0.08641975308641975,0,0,0.08641975308641975,0,0)" xlink:href="#I"/><use transform="matrix(0.08641975308641975,0,0,0.08641975308641975,20.74074074074074,0)" xlink:href="#D"/><use transform="matrix(0.08641975308641975,0,0,0.08641975308641975,38.02469135802469,0)" xlink:href="#D"/><use transform="matrix(0.08641975308641975,0,0,0.08641975308641975,55.30864197530864,0)" xlink:href="#G"/><use transform="matrix(0.08641975308641975,0,0,0.08641975308641975,65.59259259259258,0)" xlink:href="#H"/><use transform="matrix(0.08641975308641975,0,0,0.08641975308641975,82.87654320987653,0)" xlink:href="#E"/><use transform="matrix(0.08641975308641975,0,0,0.08641975308641975,98.43209876543209,0)" xlink:href="#E"/></g><path d="M143 4C61 4 22-44 18-125c-5-107 100-154 193-111 17 8 29 25 37 43l-32 9c-13-25-37-40-76-40-61 0-88 39-88 99 0 61 29 100 91 101 35 0 62-11 79-27v-45h-74v-28h105v86C228-13 192 4 143 4" id="J"/><path d="M100-194c62-1 85 37 85 99 1 63-27 99-86 99S16-35 15-95c0-66 28-99 85-99zM99-20c44 1 53-31 53-75 0-43-8-75-51-75s-53 32-53 75 10 74 51 75" id="K"/><path d="M177-190C167-65 218 103 67 71c-23-6-38-20-44-43l32-5c15 47 100 32 89-28v-30C133-14 115 1 83 1 29 1 15-40 15-95c0-56 16-97 71-98 29-1 48 16 59 35 1-10 0-23 2-32h30zM94-22c36 0 50-32 50-73 0-42-14-75-50-75-39 0-46 34-46 75s6 73 46 73" id="L"/><path d="M115-194c55 1 70 41 70 98S169 2 115 4C84 4 66-9 55-30l1 105H24l-1-265h31l2 30c10-21 28-34 59-34zm-8 174c40 0 45-34 45-75s-6-73-45-74c-42 0-51 32-51 76 0 43 10 73 51 73" id="M"/><path d="M106-169C34-169 62-67 57 0H25v-261h32l-1 103c12-21 28-36 61-36 89 0 53 116 60 194h-32v-121c2-32-8-49-39-48" id="N"/><path d="M24-231v-30h32v30H24zM24 0v-190h32V0H24" id="O"/><path d="M96-169c-40 0-48 33-48 73s9 75 48 75c24 0 41-14 43-38l32 2c-6 37-31 61-74 61-59 0-76-41-82-99-10-93 101-131 147-64 4 7 5 14 7 22l-32 3c-4-21-16-35-41-35" id="P"/><path d="M24 0v-261h32V0H24" id="Q"/><g id="d"><use transform="matrix(0.08641975308641975,0,0,0.08641975308641975,0,0)" xlink:href="#J"/><use transform="matrix(0.08641975308641975,0,0,0.08641975308641975,24.197530864197528,0)" xlink:href="#H"/><use transform="matrix(0.08641975308641975,0,0,0.08641975308641975,41.48148148148148,0)" xlink:href="#K"/><use transform="matrix(0.08641975308641975,0,0,0.08641975308641975,58.76543209876543,0)" xlink:href="#L"/><use transform="matrix(0.08641975308641975,0,0,0.08641975308641975,76.04938271604938,0)" xlink:href="#G"/><use transform="matrix(0.08641975308641975,0,0,0.08641975308641975,86.33333333333333,0)" xlink:href="#C"/><use transform="matrix(0.08641975308641975,0,0,0.08641975308641975,103.61728395061728,0)" xlink:href="#M"/><use transform="matrix(0.08641975308641975,0,0,0.08641975308641975,120.90123456790123,0)" xlink:href="#N"/><use transform="matrix(0.08641975308641975,0,0,0.08641975308641975,138.18518518518516,0)" xlink:href="#O"/><use transform="matrix(0.08641975308641975,0,0,0.08641975308641975,145.01234567901233,0)" xlink:href="#P"/><use transform="matrix(0.08641975308641975,0,0,0.08641975308641975,160.56790123456787,0)" xlink:href="#C"/><use transform="matrix(0.08641975308641975,0,0,0.08641975308641975,177.8518518518518,0)" xlink:href="#Q"/></g><path d="M190 0L58-211 59 0H30v-248h39L202-35l-2-213h31V0h-41" id="R"/><path d="M210-169c-67 3-38 105-44 169h-31v-121c0-29-5-50-35-48C34-165 62-65 56 0H25l-1-190h30c1 10-1 24 2 32 10-44 99-50 107 0 11-21 27-35 58-36 85-2 47 119 55 194h-31v-121c0-29-5-49-35-48" id="S"/><g id="e"><use transform="matrix(0.08641975308641975,0,0,0.08641975308641975,0,0)" xlink:href="#R"/><use transform="matrix(0.08641975308641975,0,0,0.08641975308641975,22.382716049382715,0)" xlink:href="#C"/><use transform="matrix(0.08641975308641975,0,0,0.08641975308641975,39.666666666666664,0)" xlink:href="#S"/><use transform="matrix(0.08641975308641975,0,0,0.08641975308641975,65.50617283950618,0)" xlink:href="#H"/><use transform="matrix(0.08641975308641975,0,0,0.08641975308641975,82.79012345679013,0)" xlink:href="#E"/></g><path d="M233-177c-1 41-23 64-60 70L243 0h-38l-65-103H63V0H30v-248c88 3 205-21 203 71zM63-129c60-2 137 13 137-47 0-61-80-42-137-45v92" id="T"/><g id="f"><use transform="matrix(0.08641975308641975,0,0,0.08641975308641975,0,0)" xlink:href="#T"/><use transform="matrix(0.08641975308641975,0,0,0.08641975308641975,22.382716049382715,0)" xlink:href="#K"/><use transform="matrix(0.08641975308641975,0,0,0.08641975308641975,39.666666666666664,0)" xlink:href="#C"/><use transform="matrix(0.08641975308641975,0,0,0.08641975308641975,56.95061728395061,0)" xlink:href="#D"/><use transform="matrix(0.08641975308641975,0,0,0.08641975308641975,74.23456790123456,0)" xlink:href="#E"/></g><path d="M30-248c87 1 191-15 191 75 0 78-77 80-158 76V0H30v-248zm33 125c57 0 124 11 124-50 0-59-68-47-124-48v98" id="U"/><g id="g"><use transform="matrix(0.05,0,0,0.05,0,0)" xlink:href="#U"/><use transform="matrix(0.05,0,0,0.05,12,0)" xlink:href="#C"/><use transform="matrix(0.05,0,0,0.05,22,0)" xlink:href="#G"/><use transform="matrix(0.05,0,0,0.05,27.950000000000003,0)" xlink:href="#P"/><use transform="matrix(0.05,0,0,0.05,36.95,0)" xlink:href="#H"/><use transform="matrix(0.05,0,0,0.05,46.95,0)" xlink:href="#Q"/></g><g id="h"><use transform="matrix(0.05,0,0,0.05,0,0)" xlink:href="#T"/><use transform="matrix(0.05,0,0,0.05,12.950000000000001,0)" xlink:href="#K"/><use transform="matrix(0.05,0,0,0.05,22.950000000000003,0)" xlink:href="#C"/><use transform="matrix(0.05,0,0,0.05,32.95,0)" xlink:href="#D"/></g><g id="i"><use transform="matrix(0.05,0,0,0.05,0,0)" xlink:href="#R"/><use transform="matrix(0.05,0,0,0.05,12.950000000000001,0)" xlink:href="#C"/><use transform="matrix(0.05,0,0,0.05,22.950000000000003,0)" xlink:href="#S"/><use transform="matrix(0.05,0,0,0.05,37.900000000000006,0)" xlink:href="#H"/></g><g id="j"><use transform="matrix(0.05,0,0,0.05,0,0)" xlink:href="#I"/><use transform="matrix(0.05,0,0,0.05,12,0)" xlink:href="#D"/><use transform="matrix(0.05,0,0,0.05,22,0)" xlink:href="#D"/><use transform="matrix(0.05,0,0,0.05,32,0)" xlink:href="#G"/><use transform="matrix(0.05,0,0,0.05,37.95,0)" xlink:href="#H"/><use transform="matrix(0.05,0,0,0.05,47.95,0)" xlink:href="#E"/><use transform="matrix(0.05,0,0,0.05,56.95,0)" xlink:href="#E"/></g><g id="k"><use transform="matrix(0.05,0,0,0.05,0,0)" xlink:href="#J"/><use transform="matrix(0.05,0,0,0.05,14,0)" xlink:href="#H"/><use transform="matrix(0.05,0,0,0.05,24,0)" xlink:href="#K"/><use transform="matrix(0.05,0,0,0.05,34,0)" xlink:href="#L"/><use transform="matrix(0.05,0,0,0.05,44,0)" xlink:href="#G"/><use transform="matrix(0.05,0,0,0.05,49.95,0)" xlink:href="#C"/><use transform="matrix(0.05,0,0,0.05,59.95,0)" xlink:href="#M"/><use transform="matrix(0.05,0,0,0.05,69.95,0)" xlink:href="#N"/><use transform="matrix(0.05,0,0,0.05,79.95,0)" xlink:href="#O"/><use transform="matrix(0.05,0,0,0.05,83.9,0)" xlink:href="#P"/><use transform="matrix(0.05,0,0,0.05,92.9,0)" xlink:href="#C"/><use transform="matrix(0.05,0,0,0.05,102.9,0)" xlink:href="#Q"/></g><path d="M115-194c53 0 69 39 70 98 0 66-23 100-70 100C84 3 66-7 56-30L54 0H23l1-261h32v101c10-23 28-34 59-34zm-8 174c40 0 45-34 45-75 0-40-5-75-45-74-42 0-51 32-51 76 0 43 10 73 51 73" id="V"/><g id="l"><use transform="matrix(0.05,0,0,0.05,0,0)" xlink:href="#I"/><use transform="matrix(0.05,0,0,0.05,12,0)" xlink:href="#D"/><use transform="matrix(0.05,0,0,0.05,22,0)" xlink:href="#D"/><use transform="matrix(0.05,0,0,0.05,32,0)" xlink:href="#G"/><use transform="matrix(0.05,0,0,0.05,37.95,0)" xlink:href="#H"/><use transform="matrix(0.05,0,0,0.05,47.95,0)" xlink:href="#E"/><use transform="matrix(0.05,0,0,0.05,56.95,0)" xlink:href="#E"/><use transform="matrix(0.05,0,0,0.05,65.95,0)" xlink:href="#C"/><use transform="matrix(0.05,0,0,0.05,75.95,0)" xlink:href="#V"/><use transform="matrix(0.05,0,0,0.05,85.95,0)" xlink:href="#Q"/><use transform="matrix(0.05,0,0,0.05,89.9,0)" xlink:href="#H"/></g><path d="M140-251c81 0 123 46 123 126C263-46 219 4 140 4 59 4 17-45 17-125s42-126 123-126zm0 227c63 0 89-41 89-101s-29-99-89-99c-61 0-89 39-89 99S79-25 140-24" id="W"/><path d="M24-231v-30h32v30H24zM-9 49c24 4 33-6 33-30v-209h32V24c2 40-23 58-65 49V49" id="X"/><g id="m"><use transform="matrix(0.05,0,0,0.05,0,0)" xlink:href="#W"/><use transform="matrix(0.05,0,0,0.05,14,0)" xlink:href="#V"/><use transform="matrix(0.05,0,0,0.05,24,0)" xlink:href="#X"/><use transform="matrix(0.05,0,0,0.05,27.950000000000003,0)" xlink:href="#H"/><use transform="matrix(0.05,0,0,0.05,37.95,0)" xlink:href="#P"/><use transform="matrix(0.05,0,0,0.05,46.95,0)" xlink:href="#F"/></g><path d="M179-190L93 31C79 59 56 82 12 73V49c39 6 53-20 64-50L1-190h34L92-34l54-156h33" id="Y"/><g id="n"><use transform="matrix(0.05,0,0,0.05,0,0)" xlink:href="#U"/><use transform="matrix(0.05,0,0,0.05,12,0)" xlink:href="#G"/><use transform="matrix(0.05,0,0,0.05,17.95,0)" xlink:href="#K"/><use transform="matrix(0.05,0,0,0.05,27.950000000000003,0)" xlink:href="#M"/><use transform="matrix(0.05,0,0,0.05,37.95,0)" xlink:href="#H"/><use transform="matrix(0.05,0,0,0.05,47.95,0)" xlink:href="#G"/><use transform="matrix(0.05,0,0,0.05,53.900000000000006,0)" xlink:href="#F"/><use transform="matrix(0.05,0,0,0.05,58.900000000000006,0)" xlink:href="#Y"/></g><path d="M84 4C-5 8 30-112 23-190h32v120c0 31 7 50 39 49 72-2 45-101 50-169h31l1 190h-30c-1-10 1-25-2-33-11 22-28 36-60 37" id="Z"/><path d="M117-194c89-4 53 116 60 194h-32v-121c0-31-8-49-39-48C34-167 62-67 57 0H25l-1-190h30c1 10-1 24 2 32 11-22 29-35 61-36" id="aa"/><g id="o"><use transform="matrix(0.08641975308641975,0,0,0.08641975308641975,0,0)" xlink:href="#B"/><use transform="matrix(0.08641975308641975,0,0,0.08641975308641975,22.382716049382715,0)" xlink:href="#K"/><use transform="matrix(0.08641975308641975,0,0,0.08641975308641975,39.666666666666664,0)" xlink:href="#S"/><use transform="matrix(0.08641975308641975,0,0,0.08641975308641975,65.50617283950618,0)" xlink:href="#M"/><use transform="matrix(0.08641975308641975,0,0,0.08641975308641975,82.79012345679013,0)" xlink:href="#K"/><use transform="matrix(0.08641975308641975,0,0,0.08641975308641975,100.07407407407406,0)" xlink:href="#Z"/><use transform="matrix(0.08641975308641975,0,0,0.08641975308641975,117.35802469135801,0)" xlink:href="#aa"/><use transform="matrix(0.08641975308641975,0,0,0.08641975308641975,134.64197530864197,0)" xlink:href="#D"/></g><g id="p"><use transform="matrix(0.08641975308641975,0,0,0.08641975308641975,0,0)" xlink:href="#R"/><use transform="matrix(0.08641975308641975,0,0,0.08641975308641975,22.382716049382715,0)" xlink:href="#C"/><use transform="matrix(0.08641975308641975,0,0,0.08641975308641975,39.666666666666664,0)" xlink:href="#S"/><use transform="matrix(0.08641975308641975,0,0,0.08641975308641975,65.50617283950618,0)" xlink:href="#H"/></g><g id="q"><use transform="matrix(0.05,0,0,0.05,0,0)" xlink:href="#B"/><use transform="matrix(0.05,0,0,0.05,12.950000000000001,0)" xlink:href="#K"/><use transform="matrix(0.05,0,0,0.05,22.950000000000003,0)" xlink:href="#S"/><use transform="matrix(0.05,0,0,0.05,37.900000000000006,0)" xlink:href="#M"/><use transform="matrix(0.05,0,0,0.05,47.900000000000006,0)" xlink:href="#K"/><use transform="matrix(0.05,0,0,0.05,57.900000000000006,0)" xlink:href="#Z"/><use transform="matrix(0.05,0,0,0.05,67.9,0)" xlink:href="#aa"/><use transform="matrix(0.05,0,0,0.05,77.9,0)" xlink:href="#D"/></g><g id="r"><use transform="matrix(0.05,0,0,0.05,0,0)" xlink:href="#T"/><use transform="matrix(0.05,0,0,0.05,12.950000000000001,0)" xlink:href="#H"/><use transform="matrix(0.05,0,0,0.05,22.950000000000003,0)" xlink:href="#E"/><use transform="matrix(0.05,0,0,0.05,31.950000000000003,0)" xlink:href="#K"/><use transform="matrix(0.05,0,0,0.05,41.95,0)" xlink:href="#Z"/><use transform="matrix(0.05,0,0,0.05,51.95,0)" xlink:href="#G"/><use transform="matrix(0.05,0,0,0.05,57.900000000000006,0)" xlink:href="#P"/><use transform="matrix(0.05,0,0,0.05,66.9,0)" xlink:href="#H"/></g><path d="M185-189c-5-48-123-54-124 2 14 75 158 14 163 119 3 78-121 87-175 55-17-10-28-26-33-46l33-7c5 56 141 63 141-1 0-78-155-14-162-118-5-82 145-84 179-34 5 7 8 16 11 25" id="ab"/><path d="M140-251c81 0 123 46 123 126C263-53 228-8 163 1c7 30 30 48 69 40v23c-55 16-95-15-103-61C56-3 17-48 17-125c0-80 42-126 123-126zm0 227c63 0 89-41 89-101s-29-99-89-99c-61 0-89 39-89 99S79-25 140-24" id="ac"/><path d="M30 0v-248h33v221h125V0H30" id="ad"/><g id="s"><use transform="matrix(0.08641975308641975,0,0,0.08641975308641975,0,0)" xlink:href="#J"/><use transform="matrix(0.08641975308641975,0,0,0.08641975308641975,24.197530864197528,0)" xlink:href="#H"/><use transform="matrix(0.08641975308641975,0,0,0.08641975308641975,41.48148148148148,0)" xlink:href="#K"/><use transform="matrix(0.08641975308641975,0,0,0.08641975308641975,58.76543209876543,0)" xlink:href="#ab"/><use transform="matrix(0.08641975308641975,0,0,0.08641975308641975,79.50617283950618,0)" xlink:href="#U"/><use transform="matrix(0.08641975308641975,0,0,0.08641975308641975,97.9135802469136,0)" xlink:href="#I"/><use transform="matrix(0.08641975308641975,0,0,0.08641975308641975,118.65432098765433,0)" xlink:href="#T"/><use transform="matrix(0.08641975308641975,0,0,0.08641975308641975,141.03703703703704,0)" xlink:href="#ac"/><use transform="matrix(0.08641975308641975,0,0,0.08641975308641975,165.23456790123456,0)" xlink:href="#ad"/></g><path d="M63-220v92h138v28H63V0H30v-248h175v28H63" id="ae"/><g id="t"><use transform="matrix(0.05,0,0,0.05,0,0)" xlink:href="#ae"/><use transform="matrix(0.05,0,0,0.05,10.950000000000001,0)" xlink:href="#H"/><use transform="matrix(0.05,0,0,0.05,20.950000000000003,0)" xlink:href="#C"/><use transform="matrix(0.05,0,0,0.05,30.950000000000003,0)" xlink:href="#F"/><use transform="matrix(0.05,0,0,0.05,35.95,0)" xlink:href="#Z"/><use transform="matrix(0.05,0,0,0.05,45.95,0)" xlink:href="#G"/><use transform="matrix(0.05,0,0,0.05,51.900000000000006,0)" xlink:href="#H"/></g><g id="u"><use transform="matrix(0.05,0,0,0.05,0,0)" xlink:href="#ae"/><use transform="matrix(0.05,0,0,0.05,10.950000000000001,0)" xlink:href="#H"/><use transform="matrix(0.05,0,0,0.05,20.950000000000003,0)" xlink:href="#C"/><use transform="matrix(0.05,0,0,0.05,30.950000000000003,0)" xlink:href="#F"/><use transform="matrix(0.05,0,0,0.05,35.95,0)" xlink:href="#Z"/><use transform="matrix(0.05,0,0,0.05,45.95,0)" xlink:href="#G"/><use transform="matrix(0.05,0,0,0.05,51.900000000000006,0)" xlink:href="#H"/></g><g id="v"><use transform="matrix(0.05,0,0,0.05,0,0)" xlink:href="#B"/><use transform="matrix(0.05,0,0,0.05,12.950000000000001,0)" xlink:href="#K"/><use transform="matrix(0.05,0,0,0.05,22.950000000000003,0)" xlink:href="#Q"/><use transform="matrix(0.05,0,0,0.05,26.900000000000002,0)" xlink:href="#Q"/><use transform="matrix(0.05,0,0,0.05,30.85,0)" xlink:href="#H"/><use transform="matrix(0.05,0,0,0.05,40.85,0)" xlink:href="#P"/><use transform="matrix(0.05,0,0,0.05,49.85,0)" xlink:href="#F"/><use transform="matrix(0.05,0,0,0.05,54.85,0)" xlink:href="#O"/><use transform="matrix(0.05,0,0,0.05,58.800000000000004,0)" xlink:href="#K"/><use transform="matrix(0.05,0,0,0.05,68.80000000000001,0)" xlink:href="#aa"/></g><g id="w"><use transform="matrix(0.07407407407407408,0,0,0.07407407407407408,0,0)" xlink:href="#E"/><use transform="matrix(0.07407407407407408,0,0,0.07407407407407408,13.333333333333336,0)" xlink:href="#Z"/><use transform="matrix(0.07407407407407408,0,0,0.07407407407407408,28.148148148148152,0)" xlink:href="#V"/></g><g id="x"><use transform="matrix(0.07407407407407408,0,0,0.07407407407407408,0,0)" xlink:href="#P"/><use transform="matrix(0.07407407407407408,0,0,0.07407407407407408,13.333333333333336,0)" xlink:href="#Q"/><use transform="matrix(0.07407407407407408,0,0,0.07407407407407408,19.18518518518519,0)" xlink:href="#C"/><use transform="matrix(0.07407407407407408,0,0,0.07407407407407408,34.00000000000001,0)" xlink:href="#E"/><use transform="matrix(0.07407407407407408,0,0,0.07407407407407408,47.33333333333334,0)" xlink:href="#E"/></g><path d="M101-234c-31-9-42 10-38 44h38v23H63V0H32v-167H5v-23h27c-7-52 17-82 69-68v24" id="af"/><g id="y"><use transform="matrix(0.07407407407407408,0,0,0.07407407407407408,0,0)" xlink:href="#K"/><use transform="matrix(0.07407407407407408,0,0,0.07407407407407408,14.814814814814817,0)" xlink:href="#af"/></g><g id="z"><use transform="matrix(0.07407407407407408,0,0,0.07407407407407408,0,0)" xlink:href="#B"/><use transform="matrix(0.07407407407407408,0,0,0.07407407407407408,19.185185185185187,0)" xlink:href="#Q"/><use transform="matrix(0.07407407407407408,0,0,0.07407407407407408,25.037037037037035,0)" xlink:href="#C"/><use transform="matrix(0.07407407407407408,0,0,0.07407407407407408,39.851851851851855,0)" xlink:href="#E"/><use transform="matrix(0.07407407407407408,0,0,0.07407407407407408,53.18518518518519,0)" xlink:href="#E"/></g><path d="M240 0l2-218c-23 76-54 145-80 218h-23L58-218 59 0H30v-248h44l77 211c21-75 51-140 76-211h43V0h-30" id="ag"/><g id="A"><use transform="matrix(0.08641975308641975,0,0,0.08641975308641975,0,0)" xlink:href="#ag"/><use transform="matrix(0.08641975308641975,0,0,0.08641975308641975,25.839506172839506,0)" xlink:href="#K"/><use transform="matrix(0.08641975308641975,0,0,0.08641975308641975,43.123456790123456,0)" xlink:href="#D"/><use transform="matrix(0.08641975308641975,0,0,0.08641975308641975,60.407407407407405,0)" xlink:href="#H"/><use transform="matrix(0.08641975308641975,0,0,0.08641975308641975,77.69135802469135,0)" xlink:href="#Q"/></g></defs></g></svg>